<?xml version="1.0" encoding="UTF-8"?>
<svg id="Layer_1" xmlns="http://www.w3.org/2000/svg" version="1.1" viewBox="0 0 674.57 106.04" xml:space="preserve" preserveAspectRatio="xMinYMid meet">
  <!-- Generator: Adobe Illustrator 30.0.0, SVG Export Plug-In . SVG Version: 2.1.1 Build 123)  -->
  <defs>
    <style>
      .st0 {
        fill: none;
        stroke: #6a737b;
        stroke-width: 1.85px;
      }

      .st1 {
        fill: #231f20;
      }

      .st2 {
        fill: #fff;
      }

      .st3 {
        fill: #b0b7bc;
      }

      .st4 {
        fill: #6a737b;
      }

      .st5 {
        fill: #b5121b;}

	      
    </style>
  </defs>
  <path class="st3" d="M669.48,40.76v7.13c0,13.24-6.5,42.55-38.43,58.15-31.93-15.6-38.43-44.91-38.43-58.15v-7.13h76.86Z"/>
  <path class="st5" d="M631.05,8.75s25.08-.36,38.43,4.9v27.1h-76.86V13.65c13.35-5.26,38.43-4.9,38.43-4.9"/>
  <path class="st2" d="M600.97,16.67c-.07.01-.14.03-.19.04.05-.07.13-.16.23-.24.16-.14.38-.26.66-.26.24,0,.52.09.86.34-.05.03-.1.06-.15.09-.1.08-.2.17-.28.25-.12-.1-.38-.26-.8-.26-.1,0-.21.01-.33.03h0ZM601.74,19.02c-.2-.06-.38-.09-.54-.09-.42,0-.67.19-.83.4-.11.15-.18.32-.21.44.05-.03.1-.07.17-.11.29-.18.56-.23.77-.23.15,0,.27.03.35.05.12-.24.26-.42.29-.46,0,0,0,0,0,0h0ZM602.02,17.69s-.05.07-.05.07h0s0,0,0,0h0s-.02.05-.02.05c-.02.04-.03.09-.03.15,0,.1.04.22.21.33.21.13.63.4.98.62.12-.33.31-.62.56-.86l-.53-1.01h0s0,0,0,0v-.02s-.06-.06-.06-.06c-.04-.05-.1-.09-.19-.09-.06,0-.15.02-.26.11-.31.24-.53.56-.62.7h0ZM603.92,35.07c-.11.24-.14.48-.14.66v.04s.04-.07.06-.12c.21-.37.51-.57.75-.68-.04-.17-.07-.33-.1-.5-.29.16-.47.37-.57.58h0ZM604.92,22.94c.49.4.77.54.94.54.11,0,.18-.05.27-.14.05-.07.12-.17.2-.28.06-.1.09-.22.09-.35,0-.24-.09-.5-.14-.61h0c-.05-.12-1.18-2.65-1.46-3.67-.04-.14-.04-.3-.06-.37l-.03-.04s-.04-.02-.08-.02c-.08,0-.2.04-.31.1-.68.41-.93,1.02-.93,1.68,0,1.23.89,2.65,1.52,3.16h0ZM602.98,19.57s0-.09.01-.14c0-.06-.4-.21-.45-.23-.16-.04-.35-.02-.47.11-.13.15-.35.49-.35.78,0,.11.03.21.1.29.07.09.19.17.38.22.34.1.68.2.96.29-.12-.37-.19-.75-.19-1.12,0-.07,0-.14,0-.2h0ZM604.72,15.42s.07,0,.11,0c.19,0,.33.06.44.13-.05-.48-.23-.76-.43-.93-.23-.18-.5-.22-.71-.22-.05,0-.09,0-.14,0,.05.03.1.07.16.12.43.32.54.69.57.9h0ZM603.75,16.8c.05.16.09.32.14.48.01.04.18.49.17.5.02-.01.04-.03.07-.04,0,0,.01,0,.01,0,.17-.09.33-.14.48-.14.08,0,.15.02.22.04.05-.13.12-.31.18-.49.07-.21.13-.42.15-.52,0-.07.02-.17.02-.26,0-.13-.02-.26-.07-.35-.05-.09-.13-.14-.28-.15-.06,0-.14,0-.22.03-.27.07-.63.16-.8.4-.1.15-.08.33-.06.51h0ZM608.28,17.3c.26-.34.35-.63.35-.87,0-.28-.12-.5-.26-.66-.08-.1-.17-.17-.24-.22.01.05.03.12.04.19.02.12.04.23.04.33,0,.42-.17.68-.27.8.12.1.26.25.34.43h0ZM616.95,15.56v-.03c0-.12.11-.31.17-.41.1-.16.3-.32.21-.53-.05-.12-.2-.19-.2-.34,0-.07.04-.13.12-.19.08-.06.19-.1.29-.13.34-.1,1.38-.47,1.39-.47.1-.1.13-.19.26-.3.12-.11.34-.23.77-.31,1.09-.22,4.07-.41,4.36-.43.09,0,.2.05.33.15.18.14.39.36.54.55.08.09.14.17.19.23.04.06.07.1.07.1l.04.06.05-.04s.05-.03.11-.05c.06-.02.15-.03.23-.03.12,0,.26.03.38.12.12.09.23.23.29.48.03.13.05.25.05.38,0,.72-.49,1.43-.82,1.81l-.03.04.03.04c1.11,1.64,1.31,3.14,1.32,3.64-.14-.2-.35-.51-.35-.52,0,0-.03-.05-.08-.1-.05-.05-.11-.11-.19-.14-.03-.01-.05-.01-.08-.01-.05,0-.11.02-.15.06-.04.04-.06.1-.06.17,0,.06.02.13.05.21.49,1.41.57,2.92.57,3.74,0,.03,0,.05,0,.07-.19-.31-.48-.77-.48-.78-.09-.16-.19-.24-.29-.24-.06,0-.11.03-.14.07-.03.04-.05.09-.05.15,0,.04,0,.08.02.11.25.66.34,1.3.34,1.87,0,.77-.16,1.43-.32,1.9-.08.24-.16.42-.22.55-.02.04-.03.07-.05.1-.04-.07-.09-.15-.15-.26-.11-.2-.25-.45-.32-.64-.04-.09-.08-.16-.12-.21-.05-.05-.1-.08-.16-.08s-.12.04-.15.09c-.03.05-.04.12-.04.2,0,.03,0,.06,0,.09.01.15.02.29.02.43,0,1.32-.52,2.23-1.03,2.82-.26.3-.52.51-.71.65-.09.07-.17.12-.22.15,0-.35,0-1.44,0-1.85,0-.08-.02-.16-.06-.21-.04-.06-.09-.1-.17-.1-.04,0-.08.02-.12.05-.03.03-.06.07-.08.13-.37.86-.74,1.36-1.07,1.64-.33.28-.61.34-.81.34-.1,0-.18-.02-.23-.03.03-.08.11-.2.18-.36.12-.25.24-.56.24-.86,0-.21-.06-.41-.23-.55-.17-.15-.43-.23-.81-.23-.12,0-.24,0-.38.02-.89.1-2.15.66-3.19,1.2-.88.45-1.6.88-1.81,1.01-.21-.44-.29-.84-.29-1.19,0-.51.16-.93.32-1.22.08-.14.16-.26.22-.33.03-.04.06-.07.07-.08l.03-.03s.03-.04.07-.08c.03-.05.07-.11.07-.19,0-.05-.02-.1-.07-.13-.05-.04-.11-.05-.19-.05-.45.05-.79.21-1.04.37-.18.11-.32.23-.42.32.06-1.41.58-2.32,1.13-2.91.57-.6,1.16-.85,1.31-.91.11-.05.19-.09.24-.15.05-.05.07-.11.07-.16,0-.03,0-.06-.01-.08-.01-.05-.04-.08-.07-.1-.09-.06-.21-.07-.22-.08,0,0-.32-.07-.64-.14-.16-.04-.32-.07-.44-.1-.04-.01-.08-.02-.11-.03.94-1.17,2.27-1.36,3.01-1.36.16,0,.3,0,.39.02.05,0,.08,0,.1.01.02,0,.04,0,.04,0,.06,0,.1.01.15.01.11,0,.2-.02.27-.07.06-.04.1-.11.1-.17,0-.09-.05-.13-.09-.16-.04-.03-.07-.05-.07-.05,0,0-.03-.01-.03-.01-.05-.03-.2-.11-.54-.3-.12-.07-.18-.12-.22-.17-.04-.04-.04-.07-.04-.09v-.03c.07,0,.23.01.4.03.22.02.48.04.58.07.35.13.64.18.9.18.5,0,.84-.2,1.08-.44.23-.23.36-.5.43-.63.07-.12.1-.24.1-.35,0-.21-.12-.39-.3-.42-.1-.02-.28-.06-.48-.06-.23,0-.5.05-.7.26-.14.15-.25.18-.33.18-.05,0-.08-.01-.11-.02l-.03-.02s-.46-.42-.46-.42c-.19-.05-.29-.1-.36-.14-.06-.04-.07-.07-.07-.08l.02-.04s.04-.04.07-.05c.25-.15.39-.19.59-.19.22,0,.52.05,1.06.05.09,0,.18,0,.29,0,.39-.01.65-.14.79-.32.15-.18.19-.4.19-.59,0-.25-.07-.45-.07-.46,0,0-.28-.77-.81-1.66-.15-.25-.36-.35-.57-.35-.29,0-.59.17-.81.34-.21.16-.36.32-.38.33-.19.17-.38.24-.55.24-.2,0-.38-.09-.52-.22-.14-.14-.24-.32-.26-.49h0ZM619.83,14.04c.14.06.28.15.4.24,0,0,.04.03.04.03l.04-.03s.17-.14.34-.29c.07-.07.37-.25.35-.37-.03-.19-.85.03-.97.07-.12.04-.21.07-.28.11-.03.02-.06.03-.08.05l-.03.03c-.12.11.15.15.2.17h0ZM605.24,18.32c.2.74.91,2.39,1.25,3.17.11.25.18.41.18.42,0,0,.18.38.18.8,0,.2-.04.41-.17.6-.16.25-.31.43-.32.43h0s0,0,0,0h0s-.02.02-.02.02c-.01.02-.03.05-.05.08-.04.07-.07.18-.07.31s.03.29.14.48c0,0,.13.23.29.5.16.27.34.58.44.72.04.05.08.1.11.14.03.04.06.07.08.07l.02-.03s.03-.13.03-.26c0-.02,0-.05,0-.07v-.04c0-.16.02-.39.03-.53,0-.14.12-.22.24-.22.09,0,.19.06.22.17.03.12.07.34.15.57h0s0,.02.02.07c.02.04.05.11.08.18.07.16.18.37.33.6.28.43.7.91,1.28,1.15,0-.07,0-.14,0-.2,0-.28-.02-.5-.02-.57,0-.01,0-.04,0-.06,0-.03,0-.07.02-.11.02-.04.06-.08.12-.08h.01s.08.02.11.04c.03.02.06.05.09.08.03.03.05.06.07.08h0l.02.03s.03.05.08.13c.06.08.14.2.24.34.2.28.49.66.83,1.04.62.69,1.41,1.39,2.13,1.55-.04-.2-.07-.4-.07-.6,0-.4.08-.79.23-1.16-.08.06-.15.11-.21.17l-1.02.85.05-1.32c.06-1.33.49-2.43,1.28-3.28.24-.26.52-.49.81-.68-.11-.03-.22-.05-.3-.07-.06-.01-.1-.03-.13-.04l-.29-.08c-1.74-.24-4.29-1.01-6.69-3.28-.29-.25-.58-.72-.58-1.23,0-.26.08-.54.28-.79.2-.25.52-.48,1-.65h0s0,0,0,0h0s.02,0,.02,0l.06-.03s.08-.07.08-.13c0-.08-.07-.24-.38-.48-.39-.3-.67-.52-.86-.66-.19-.14-.27-.2-.27-.2h0s0,0,0,0h-.02s-.1.01-.22.13c-.22.21-.97.83-.96,1.61,0,.11.01.23.05.34h0ZM607.94,31.64h0s0-.06,0-.06c0-.06-.02-.17-.18-.31-.13-.12-.28-.24-.4-.33-.1-.08-.17-.13-.19-.15h-.01s-.04-.01-.07-.01c-.05,0-.12.01-.21.07-.02.01-.05.03-.1.05-.05.03-.11.06-.19.11-.14.08-.33.19-.52.33.03.04.07.09.1.13.24.28.59.61,1.03.83.19.09.39.16.61.2-.02-.09-.03-.17-.03-.25,0-.34.12-.59.13-.61h0ZM604.81,31.52c-.36,0-.63.15-.84.31-.11.09-.2.18-.26.26.04-.02.08-.03.12-.05.2-.08.39-.11.56-.11.16,0,.3.03.43.06.09-.14.2-.28.34-.43-.13-.03-.25-.05-.36-.05h0ZM607.25,29.58c-.22-.14-.46-.19-.63-.21.03.02.07.05.11.08.45.34.56.73.58.94.03,0,.05.02.07.02l.04.02h0s.03.03.03.03h0s.22.17.45.36c-.04-.68-.33-1.03-.64-1.23h0ZM654.11,32.91h.03c.07-.06.15-.14.27-.27.04-.05.09-.09.14-.13-.24-.11-.45-.15-.64-.15-.34,0-.61.14-.81.29-.1.08-.19.17-.25.24.04-.02.08-.03.12-.05.2-.07.38-.1.54-.1.29,0,.49.09.6.16h0ZM654.04,33.86c0,.26.17.57.34.76.12.14.29.17.47.21.19.04.38.09.58.08.16,0,.57-.08.39-.29-.09-.11-.18-.2-.25-.33-.07-.14-.13-.3-.19-.45-.08-.21-.13-.44-.17-.67,0-.07-.04-.17-.09-.24-.05-.08-.11-.12-.17-.12-.05,0-.13.03-.22.13-.36.39-.44.46-.58.61-.08.09-.11.19-.11.31h0ZM652.37,35.98c-.15.27-.19.55-.19.75v.02s.04-.07.06-.11c.28-.51.66-.66.87-.71-.01-.07-.02-.15-.02-.23,0-.1.01-.2.04-.31,0,0,0-.02.01-.03-.4.14-.64.37-.77.61h0ZM632.42,32.11c.1,0,.19,0,.27,0,.07,0,.13,0,.18,0h.02s.08,0,.12.01c-.14-.43-.36-.68-.6-.83-.26-.16-.54-.21-.76-.21-.06,0-.12,0-.17.01.04.01.08.03.12.05.56.25.73.64.79.84h0s.03.13.03.13h0ZM655.6,37s-.09-.09-.12-.14c-.19.3-.26.57-.26.81,0,.46.25.8.43.99-.01-.04-.02-.08-.03-.13-.04-.15-.05-.29-.05-.41,0-.36.13-.6.22-.72h0s.08-.11.08-.11c-.01-.02-.02-.03-.03-.04-.07-.09-.16-.18-.24-.25h0ZM658.79,37.12h0s-.02-.11-.02-.11h-.39s0,.01,0,.01h-.01s-.1,0-.18-.02c.13.45.37.71.62.86.27.16.56.2.78.2.02,0,.03,0,.05,0-.04-.02-.07-.04-.11-.06-.54-.29-.69-.69-.73-.89h0ZM606.71,36.24c-.32.31-.41.66-.41.96,0,.16.03.31.06.42,0-.04.02-.08.03-.13.11-.41.36-.67.58-.83-.06-.09-.12-.19-.17-.27-.04-.06-.06-.11-.08-.16h0ZM628.47,32.55c-.37,0-.68.17-.86.3.04,0,.08-.01.13-.02.07,0,.13-.01.19-.01.2,0,.38.04.51.09.1-.13.22-.24.33-.32-.1-.03-.2-.04-.3-.04h0ZM628.95,34.3s0,.05,0,.07c.01.06.02.08.08.12.06.03.19.07.4.09.1.01.2.02.28.02.14,0,.24-.02.31-.04.02-.07.04-.14.07-.22.05-.15.1-.31.13-.43.03-.13.03-.26.03-.39,0-.08,0-.16.02-.25-.15-.14-.39-.37-.5-.45-.07-.05-.16-.11-.28-.11-.08,0-.18.03-.3.11-.12.08-.24.16-.33.25-.09.09-.14.18-.14.27,0,.06.02.12.07.19.14.22.17.4.17.55,0,.08,0,.15,0,.21h0ZM659.66,35.03c-.06-.1-.1-.22-.1-.35,0-.3.19-.53.34-.76.02-.03.04-.06.06-.09.14-.24.21-.5.21-.79,0-.39-.13-.88-.63-1.38-.01-.01-.1-.12-.1-.39,0-.2.05-.5.21-.92.15-.38.31-.71.31-1.05,0-.17-.04-.34-.13-.52-.07.29-.15.92-.56.91-.3-.01-.28-.38-.24-.59,0-.05.02-.11.03-.2.02-.16.04-.39.04-.65,0-.37-.05-.8-.19-1.19-.07.27-.13.45-.23.56-.04.04-.1.07-.17.07-.08,0-.15-.04-.2-.1-.05-.06-.08-.13-.1-.19-.04-.13-.05-.25-.06-.27,0,0-.05-.32-.13-.68-.07-.34-.18-.72-.27-.91-.02.13-.05.28-.08.41-.04.18-.08.46-.3.51-.16.03-.22-.13-.24-.25-.04-.17-.07-.33-.11-.5-.07-.26-.16-.58-.25-.81-.05-.14-.11-.24-.16-.28-.01.03-.03.06-.05.1-.05.1-.12.24-.21.39-.19.3-.45.67-.8.92-.69.52-1.23.57-1.67.57-.69,0-1.84-.22-2.83-.87-.56-.37-1.55-.94-2.16-1.4l-.17-.13h.21c.21.02.43.02.66.02.97,0,2.01-.11,2.71-.45.86-.42,1.29-.96,1.68-1.5.4-.54.77-1.08,1.52-1.49.46-.25.94-.33,1.37-.33.52,0,.96.11,1.16.18-.18-.68-.98-1.27-1.95-1.26-.7,0-1.48.3-2.18,1.08l-.11.12v-.17s0-.03,0-.03c0-.02,0-.05,0-.08,0-.07-.02-.18-.06-.3-.06-.25-.19-.59-.42-.92-.48-.67-1.43-1.34-3.33-1.34-.15,0-.31,0-.47.01-1.55.08-4.49,1.01-7.18,1.54-2.63.51-6.51.75-8.18.75-.62,0-1.24-.06-1.78-.18-.53-.13-.99-.34-1.27-.65-.19-.21-.3-.46-.3-.77,0-.6.32-.95.74-1.14.41-.19.92-.23,1.32-.23,1.28,0,3.04.79,4.45,1.31,1,.37,1.99.38,2.54.38,1.46,0,3.33-.78,4.26-1.17.74-.31,1.37-.53,2.48-.53.26,0,.55.01.86.04-.39-.43-1.27-.89-2.4-.89-.73,0-1.56.19-2.44.68l-.06.03-.03-.06c-.04-.08-.06-.17-.06-.26,0-.23.12-.49.34-.73.19-.21.46-.4.8-.54-.21-.11-.57-.24-1.03-.35-.55-.12-1.23-.22-1.99-.22-.08,0-.17,0-.25,0-1.23.03-2.05.34-2.86.65-.81.31-1.61.61-2.76.61-.1,0-.21,0-.31,0-.24-.01-.47-.02-.7-.02-1.11,0-2.14.13-2.87.49-.74.36-1.19.92-1.19,1.81,0,.76.44,1.4,1.26,1.86.82.45,2.01.72,3.47.72h.09c3.69-.03,8.1-.89,10.79-1.34.89-.15,2.78-.66,4.39-.66.74,0,1.41.11,1.92.41.51.3.82.82.82,1.59,0,.39-.09.86-.42,1.24-.33.38-.91.66-1.85.66-1.09,0-2.33-.31-3.81-.53l-.12-.02c-.31-.05-.65-.09-1-.13-2.18-.26-4.98-.46-6.56-.46-.15,0-.29,0-.42,0-1.21.04-3.53.18-5.71.53-2.27.36-4.39.86-5.06,1.02v.08l-.02,2.08-.58-.95v.12c0,.88-.19,1.62-.35,2.09-.1.27-.19.48-.25.61-.02.05-.04.08-.06.11l-.48.92-.44-.74c-.14.89-.52,1.7-1.11,2.37-.13.15-.42.43-.74.68-.03.02-.05.04-.07.06-.11.08-.2.14-.26.18l-.88.53v-1.56c-.17.24-.36.45-.55.61-.38.32-.78.48-1.19.48-.14,0-.27-.02-.4-.06l-.73-.23.4-.64c.03-.05.1-.16.16-.3.15-.31.18-.5.18-.61,0-.03,0-.09-.03-.11-.05-.04-.19-.09-.43-.09-.1,0-.2,0-.31.02-.46.05-1.34.29-3,1.14-.86.44-1.69.93-2.51,1.44-.52.32-1.05.62-1.59.91-.78.42-1.6.77-2.47.92-.24.04-.48.06-.73.06-.38,0-.7-.1-.92-.35-.38-.02-.73-.13-1.03-.28-.34-.17-.63-.39-.87-.62-.18-.16-.31-.32-.42-.47-.42.38-.8.88-.85,1.49-.01.15-.02.3-.02.46,0,.08,0,.16,0,.24.08,0,.15,0,.23,0,1.7,0,2.64-.27,2.69-.28h.06c.1-.01.19.06.22.15v.06c0,.1-.05.19-.15.22-.02,0-1,.3-2.81.3-.06,0-.13,0-.19,0,.05.48.17.93.38,1.23.26.4.64.51.8.51,0,0,.05,0,.05,0,1.38-.96,2.28-1.27,2.31-1.28.02,0,.05-.01.07-.01.09,0,.18.06.21.15,0,.02.01.05.01.07,0,.09-.06.18-.16.22l-.04.02s-.09.04-.17.07c-.15.06-.37.17-.65.32-.18.1-.38.21-.61.35,0,.01-.02.03-.02.06,0,.04.02.09.07.17.2.3.42.69.57.9.11.16.32.33.56.33.23,0,.53-.15.87-.63.22-.26.47-.49.99-.5l1.25-.07h.02s.04,0,.06-.01c.05,0,.13-.03.21-.05.17-.06.36-.16.49-.35.09-.12.17-.21.27-.27.1-.06.21-.09.33-.09.21,0,.46.07.83.16.54.13.95.22,1.22.22.09,0,.16,0,.21-.03-.04-.04-.09-.08-.15-.14-.11-.11-.25-.25-.35-.38-.06-.09-.11-.18-.11-.27,0-.05.02-.1.05-.13.08-.08.16-.11.23-.11.09,0,.15.04.21.08.05.04.1.08.12.1.52.38,1.49.62,2.28.62.22,0,.43-.02.6-.06-.13-.08-.33-.2-.46-.34-.07-.08-.12-.15-.13-.25,0-.05.02-.11.06-.15.07-.06.15-.06.25-.06.23,0,.54.07.54.07,0,0,.05.01.14.03.09.02.21.04.36.07.3.05.7.1,1.07.1.41,0,.8-.06,1.02-.23-.4-.37-.68-.65-.68-.65-.01-.01-.1-.09-.1-.21,0-.05.02-.11.06-.17.05-.07.13-.09.2-.09.16,0,.3.08.32.1,0,0,.07.03.17.06.11.04.26.08.45.13.37.1.85.19,1.31.19.39,0,.74-.08,1-.26-.31-.13-.48-.3-.49-.31,0,0-.07-.08-.07-.2,0-.04.01-.09.04-.13.04-.07.1-.11.16-.13.06-.02.13-.03.18-.03.03,0,.07,0,.09,0,.14.02.28.02.4.02.74,0,1.15-.21,1.29-.29l-.75-.92c.09-.04.29-.15.32-.16.09-.04.22-.13.36-.16.29-.07.69-.18,1.19-.34.99-.31,2.32-.82,3.68-1.57,2.67-1.47,5.3-3.3,7.9-3.92.64-.15,1.29-.21,1.89-.21.71,0,1.36.08,1.85.18.47.1,1.03.53,1.62,1.09.58.55,1.19,1.22,1.71,1.79.61.66,1.12,1.13,1.35,1.33.07.07.11.1.11.1,0,0,.08.06.21.15.13.09.32.22.54.35.41.24.93.5,1.39.59-.02-.15-.24-1.12.2-.92.17.08.28.27.41.4.17.16.36.32.55.45.32.22.67.38.98.38.1,0,.2-.03.3-.07-.2-.23-.35-.42-.35-.42,0,0-.06-.07-.06-.16,0-.06.04-.13.11-.17.07-.04.18-.06.34-.06.06,0,.12,0,.19,0,.13,0,.33.02.58.02.45,0,1.05-.03,1.58-.12.73-.13,1.37-.34,1.65-.44.09-.03.14-.05.14-.05,0,0,.19-.08.4-.08.11,0,.23.02.34.09.15.1.25.28.34.46.08.18.14.36.19.47.24.52.66,1.12.66,2.12,0,.15,0,.3-.03.46-.03.26-.1.84-.38,1.24-.49.68-.98.72-1.03.72-.02,0-.11.02-.26.02-.09,0-.19,0-.3-.02-.35-.06-.69-.21-.94-.21-.08,0-.15.01-.21.05-.28.14-.35.34-.36.54,0,.23.11.45.15.53v.02s.02.03.03.06c.02.05.06.12.12.18.11.13.3.26.61.26.03,0,.07,0,.1,0,.24-.02.47-.16.65-.33.18-.16.32-.33.37-.4l.02-.03.45-.63s.02-.03.05-.06c.03-.03.09-.06.15-.06.04,0,.07,0,.11.03.08.04.11.13.11.19,0,.05-.01.09-.02.12-.01.03-.02.06-.04.08,0,.01-.04.06-.1.12-.05.07-.12.15-.19.24-.14.17-.28.34-.28.34v.02s-.03.05-.03.08c0,.05.02.12.11.2.13.12.24.25.35.38.09.11.16.22.29.26.29.09.59-.27.77-.46.14-.15.28-.33.35-.52.09-.29.12-.6.12-.85,0-.15,0-.27-.02-.36,0-.09-.02-.14-.02-.14,0,0,0-.03,0-.07,0-.04,0-.09.04-.14.03-.05.09-.09.16-.1h.05c.11,0,.18.06.2.11.03.06.03.1.03.11v.23c0,.17,0,.42-.01.66-.01.23-.03.45-.07.58-.01.03-.02.06-.02.07,0,.04.01.06.03.07.02.02.04.03.07.05.06.02.13.02.15.02,0,0,1.07-.03,1.07-.03h.02s.18,0,.3-.08c.12-.08.24-.21.28-.5,0-.06.01-.11.01-.16,0-.23-.06-.36-.14-.47-.08-.11-.18-.18-.26-.29h0ZM643.7,32.39c-.22-.04-.51-.11-.79-.27-.53-.31-.88-.92-.88-1.4,0-.5.3-1.16.74-1.63.32-.34.68-.62.97-.83,0,0-1.22-1.24-1.34-1.35-.39-.35-.82-.68-1.34-.82-.56-.15-1.07.02-1.57.27-.31.15-.64.31-.93.49-1.21.76-1.8,2.12-1.98,2.64.05-.04.11-.09.17-.13.19-.14.41-.3.56-.34.05-.01.1-.02.14-.02.1,0,.17.04.21.11.04.06.05.13.05.2,0,.1-.03.19-.03.2,0,0-.02.06-.05.17-.03.11-.08.26-.12.45-.07.3-.14.68-.16,1.05.24-.35.48-.61.49-.62,0,0,.02-.02.05-.05.03-.02.08-.05.14-.05.04,0,.09.02.12.05.03.03.05.06.06.1s.01.08.01.14c0,.46-.1.93.14,1.35.21.37.34.67.14,1.09-.16.34-.52.65-.83.86-.19.13-.4.21-.7.24-.26.03-.66,0-1.03.12-.45.14-.81.5-1.27.61-.13.03-.27.04-.43.04-.53,0-1.15-.17-1.53-.57-.19-.21-.26-.43-.26-.65,0-.57.48-1.05.52-1.1l.02-.04s.03-.07.03-.1l-.02-.04s-.04-.02-.12-.02c-.05,0-.12,0-.2,0-.44,0-1.17-.02-1.18-.02-.01,0-.29,0-.49.17l-.02.03s-.04.05-.07.09c-.06.08-.12.19-.17.32-.08.2-.02.48-.09.85-.07.34-.25.74-.28,1.01,0,.05,0,.1,0,.15,0,.39.16.69.29.86.46.63,1.29,1.02,2.09,1.27.8.24,1.55.33,1.85.36.06,0,.1,0,.12.01.11-.03,1.34-.36,1.77-.44.41-.08,1.46-.2,1.91-.26,0,0-.67-.34-.68-.34,0,0-.04-.02-.08-.06-.04-.04-.09-.1-.09-.19,0-.03,0-.07.02-.1.03-.06.08-.1.13-.13.05-.02.1-.03.15-.03.07,0,.11.01.13.01.02,0,.18.02.43.03.26.02.61.03.95.03.27,0,.53-.01.76-.04.55-.06.85-.31.98-.43-.03,0-.06-.01-.1-.02-.11-.03-.24-.06-.31-.09-.1-.04-.25-.12-.33-.17-.03-.02-.07-.05-.11-.09-.03-.04-.07-.1-.07-.17,0,0,0-.03,0-.03,0-.05.04-.09.07-.12.03-.03.07-.04.11-.06.07-.03.14-.04.15-.04,0,0,.21-.02.48-.07.28-.05.62-.12.87-.21.36-.13.79-.43.99-.58-.06-.02-.14-.06-.23-.1-.19-.09-.41-.2-.54-.35,0,0-.04-.04-.07-.08-.03-.05-.08-.11-.08-.19v-.06s.07-.07.1-.09c.03-.02.07-.04.11-.05.07-.02.14-.04.14-.04,0,0,.06-.01.15-.03.1-.02.23-.05.38-.09.3-.08.67-.19.92-.32.15-.08.24-.16.27-.23,0,0-.02,0-.04,0-.06-.02-.15-.03-.26-.05h0ZM627.81,35.52c-.1.14-.17.27-.21.39.03-.03.06-.05.1-.08.26-.21.51-.29.71-.32.02-.09.04-.17.05-.23v-.04s.01,0,.01,0c.02-.07.05-.14.07-.2-.34.08-.58.28-.73.49h0ZM630.35,36.65c-.07.06-.13.12-.17.16-.03.03-.06.07-.09.11-.03.04-.06.09-.06.11-.01.04-.03.11-.03.18,0,.09.02.21.1.33.08.12.22.24.46.35.19.08.35.12.48.12.25,0,.41-.12.51-.27.09-.13.14-.28.17-.38-.44-.2-.86-.47-1.18-.8-.06,0-.13.04-.19.09h0ZM630.22,36.14c-.14-.22-.29-.56-.29-1,0-.06,0-.13.01-.19h0c-.15-.02-.36-.04-.49-.04-.03,0-.05,0-.07,0h-.04s-.09,0-.12,0c-.06,0-.1,0-.15.06-.05.05-.11.16-.17.38-.03.12-.09.3-.09.45,0,.08.01.15.04.2.03.06.08.1.17.14.36.14.62.2.83.2h.04s.13-.02.2-.05c.06-.03.11-.08.13-.15h0ZM629.62,37.37c-.26.32-.3.7-.29.95,0,.01,0,.02,0,.03.02-.04.04-.07.06-.12.09-.18.2-.32.31-.42-.05-.11-.08-.23-.08-.36,0-.03,0-.05,0-.08h0ZM612.13,17.09c.33.27.71.46,1.1.57.39.11.77.14,1.14.14.74-.01,1.43-.14,2.11-.26.68-.12,1.35-.24,2.03-.23.67,0,1.36.16,1.93.58-.51-.49-1.21-.75-1.91-.85-.7-.1-1.41-.06-2.11-.03-.69.03-1.38.07-2.02,0-.64-.07-1.22-.29-1.6-.71l-.05-.05c-.22-.18-.54-.15-.72.08-.18.23-.14.57.08.75h.02Z"/>
  <path class="st2" d="M613.97,88.93c.11-.61.23-1.22.37-1.81h0c1.15.63,3.07.97,5.26,1.36,2.88.51,6.3,1.12,8.69,2.53-.6-.24-1.34-.49-2.26-.74-3.06-.83-4.62-.76-6.13-.7-1.47.06-2.99.12-5.93-.65h0ZM648.27,89.78c-3.11.66-4.72.61-6.28.56-1.61-.06-3.14-.11-6.26.59-1.15.26-2.01.51-2.67.74.74-.18,1.71-.35,2.99-.49,3.28-.35,4.89-.11,6.44.11,1.48.22,3.02.44,6.06.15-.08-.56-.17-1.12-.27-1.66h0ZM633.8,91.01c.6-.24,1.34-.49,2.26-.74,3.06-.83,4.62-.76,6.13-.7,1.46.06,2.99.12,5.93-.65-.11-.61-.23-1.22-.37-1.81,0,0,0,0,0,0-1.15.64-3.07.98-5.26,1.37-2.88.51-6.3,1.12-8.69,2.53h0ZM620.11,90.33c-1.56.05-3.17.11-6.28-.56-.11.55-.19,1.1-.28,1.66,3.04.29,4.58.07,6.06-.15,1.56-.23,3.16-.47,6.44-.11,1.28.14,2.25.31,2.99.49-.66-.23-1.52-.48-2.68-.74-3.12-.7-4.64-.65-6.26-.59h0ZM617.73,76.76l-3.17,9.54c2.67,1.73,12.49,1.3,16.17,5.67v-10.16c-.99-4.34-10.33-3.32-13-5.05h0ZM644.36,76.76c-2.67,1.73-12.01.71-13,5.05v10.16c3.68-4.36,13.5-3.94,16.17-5.67l-3.17-9.54h0Z"/>
  <path class="st2" d="M600.77,51.29l.44.76c.17.3.5.49.85.49h.02c-.2.39-.33.89-.36,1.55,0,.12,0,.24,0,.37,0,.32,0,.8-.11,1.01-.05.09-.14.19-.23.28-.21.23-.55.62-.38,1.14h0c.17.52.68.63.98.7.13.03.26.05.35.1.22.1.5.49.68.75.08.11.15.21.22.3.44.56.91.94,1.41,1.13-.38.2-.59.64-.49,1.07l.18.85c.1.45.5.78.96.78.07,0,.14,0,.21-.02l.86-.18c.36-.08.64-.35.73-.68.33.34.79.61,1.36.82.11.04.23.08.35.12.3.09.76.24.92.42.07.08.14.19.2.3.15.27.41.72.96.72h0s0,0,0,0h0s0,0,0,0c.55,0,.81-.45.96-.72.06-.11.13-.23.2-.3.16-.18.62-.32.92-.42.12-.04.24-.08.35-.12.67-.24,1.17-.58,1.51-.99.03.16.1.31.21.44.17.2.4.33.66.36l.87.09s.07,0,.1,0c.51,0,.93-.38.98-.88l.09-.87c.03-.26-.05-.52-.22-.72-.06-.07-.13-.14-.2-.19.42-.21.82-.56,1.2-1.04.07-.09.14-.19.22-.3.18-.26.46-.65.68-.75.09-.04.23-.07.35-.1.3-.06.81-.17.98-.69h-.02s0,0,0,0h.02c.17-.52-.18-.9-.39-1.13-.09-.1-.17-.2-.23-.28-.12-.21-.11-.69-.11-1.01,0-.13,0-.26,0-.37-.03-.77-.21-1.33-.47-1.74.04,0,.08,0,.12,0,.39,0,.74-.23.9-.59l.35-.8c.11-.24.11-.51.02-.75-.09-.24-.28-.44-.52-.55l-.8-.35c-.12-.05-.26-.08-.4-.08-.22,0-.43.07-.6.2-.07-.47-.27-.96-.61-1.46-.07-.1-.14-.2-.22-.3-.19-.25-.48-.64-.5-.88-.01-.1,0-.23.02-.36.03-.31.09-.82-.36-1.14l-.07.09h0s.07-.09.07-.09c-.15-.11-.34-.17-.53-.17-.25,0-.46.09-.67.18-.12.05-.24.11-.34.13-.03,0-.06,0-.1,0-.25,0-.61-.12-.89-.21-.12-.04-.24-.08-.35-.11-.4-.11-.78-.17-1.12-.17-.2,0-.44.02-.69.09.07-.15.11-.31.1-.48-.02-.26-.13-.5-.33-.68l-.65-.58c-.18-.16-.41-.25-.66-.25-.28,0-.55.12-.73.33l-.58.65c-.25.28-.31.66-.19.98-.17-.03-.33-.04-.47-.04-.34,0-.72.06-1.12.17-.11.03-.23.07-.35.11-.28.1-.63.21-.89.21-.04,0-.07,0-.1,0-.1-.02-.22-.08-.34-.13-.2-.09-.41-.18-.67-.18-.2,0-.38.06-.53.17h0s0,0,0,0c-.44.33-.39.84-.36,1.15.02.13.03.26.02.36-.03.24-.31.62-.5.88-.08.11-.15.21-.22.3-.4.59-.61,1.16-.64,1.69-.18-.17-.42-.27-.68-.27-.17,0-.34.05-.49.13l-.76.44c-.23.13-.39.35-.46.6-.07.26-.03.52.1.75"/>
  <path class="st2" d="M610.81,49.36c.97,0,1.79.69,1.98,1.61.09-.01.18-.02.27-.02.88,0,1.65.56,1.92,1.4.3.93-.11,1.92-.92,2.38.18.37.24.78.17,1.19-.09.53-.37,1-.81,1.32-.35.25-.76.39-1.19.39-.51,0-.99-.19-1.36-.53-.38.35-.88.56-1.4.56-.43,0-.84-.13-1.19-.39-.79-.57-1.04-1.61-.65-2.47-.36-.19-.65-.49-.84-.86-.24-.48-.29-1.03-.12-1.54.27-.84,1.04-1.4,1.92-1.4.08,0,.15,0,.23.01.07-.4.27-.77.56-1.07.38-.38.89-.59,1.43-.59"/>
  <path class="st5" d="M611.07,49.38c.86.11,1.55.76,1.72,1.6.09-.01.18-.02.27-.02.79,0,1.49.45,1.82,1.15.68-.18,1.27-.48,1.63-.66,1.59-.79,1.71-1.85.87-3.09-.25-.37-.79-.96-.84-1.53-.04-.43.12-.86-.03-.97h0c-.15-.11-.51.18-.93.27-.56.12-1.28-.21-1.71-.33-1.45-.41-2.41.03-2.67,1.79-.06.41-.17,1.08-.13,1.8M610.67,45.65c.09.08.23.07.31-.02l.57-.93c.08-.09.07-.23-.02-.31l-.65-.58c-.09-.08-.23-.07-.31.02l-.59.65c-.08.09-.07.23.02.31l.67.86h0ZM605.2,51.47c.36.18.93.47,1.59.65.34-.68,1.03-1.11,1.8-1.11.07,0,.15,0,.23.01.07-.4.27-.77.56-1.07.34-.34.78-.55,1.26-.58.04-.7-.07-1.36-.13-1.77-.26-1.76-1.23-2.2-2.67-1.79-.43.12-1.15.45-1.71.33-.42-.09-.78-.38-.93-.27-.15.11.01.54-.03.97-.06.57-.59,1.15-.84,1.53-.84,1.25-.72,2.3.87,3.09M601.43,50.9l.44.76c.06.1.2.14.3.08l1.02-.37c.11-.06.14-.2.08-.3l-.71-.83c-.06-.11-.2-.14-.3-.08l-.76.44c-.11.06-.14.2-.08.3M618.54,51.28l1.06.25c.11.05.24,0,.29-.11l.35-.8c.05-.11,0-.24-.11-.29l-.8-.35c-.11-.05-.24,0-.29.11l-.61.9c-.05.11,0,.24.11.29M606.33,60.25c-.03-.12-.15-.2-.26-.17l-1,.41c-.12.03-.2.15-.17.27l.18.86c.03.12.15.2.27.17l.86-.18c.12-.03.2-.15.17-.26l-.04-1.09h0ZM619.27,54.08c-.06-1.5-.77-2.29-2.52-1.99-.4.07-1.06.17-1.72.42.21.88-.2,1.79-.97,2.22.18.37.24.78.17,1.19-.07.44-.28.84-.6,1.15.37.55.81.99,1.08,1.27,1.24,1.27,2.28,1.05,3.21-.13.28-.35.66-1.04,1.19-1.28.39-.17.86-.15.92-.33h0c.06-.18-.33-.43-.55-.8-.29-.5-.2-1.28-.21-1.73M607.64,54.81c-.36-.19-.65-.49-.84-.86-.23-.45-.28-.95-.15-1.43-.63-.23-1.25-.33-1.64-.4-1.75-.29-2.47.49-2.53,1.99-.02.45.07,1.24-.21,1.73-.22.37-.61.62-.55.8h0c.06.18.52.15.92.33.53.23.91.92,1.19,1.27.93,1.18,1.97,1.39,3.21.12.27-.27.7-.71,1.07-1.25-.64-.59-.82-1.53-.47-2.32M616.78,60.32l-1.04-.3c-.12-.01-.23.08-.24.2l.08,1.08c-.01.12.08.23.2.24l.87.09c.12.01.23-.08.24-.2l.09-.87c.01-.12-.08-.23-.2-.24M614.17,58.76c.82,1.58.3,2.5-1.11,3.02-.42.15-1.2.31-1.58.74-.29.32-.41.77-.6.77s-.31-.45-.6-.77c-.38-.43-1.16-.58-1.58-.74-1.41-.52-1.93-1.44-1.11-3.02.17-.33.45-.87.84-1.38.31.19.67.29,1.04.29.52,0,1.02-.2,1.4-.56.37.34.85.53,1.36.53.38,0,.74-.1,1.06-.3.41.53.69,1.08.87,1.43"/>
  <path class="st5" d="M608.21,54.23c.11.04.22.06.33.06,0,0,0,0,0,0,.06,0,.12.04.16.09.07.09.05.22-.03.3h0c-.08.07-.15.14-.21.23-.41.56-.28,1.35.28,1.76.56.41,1.35.28,1.76-.28.07-.09.12-.19.16-.3h0c.02-.06.07-.1.14-.13.11-.04.23.02.27.12h0c.04.09.09.18.15.27.41.56,1.19.69,1.76.28.56-.41.69-1.2.28-1.76-.07-.09-.15-.17-.23-.24h0s-.08-.1-.08-.17c0-.12.09-.21.2-.22,0,0,0,0,0,0,.1,0,.2-.02.3-.06.66-.21,1.02-.93.81-1.59-.21-.66-.92-1.02-1.58-.81-.11.04-.21.08-.3.14,0,0,0,0,0,0-.05.03-.12.04-.18.02-.11-.04-.17-.15-.15-.26,0,0,0,0,0,0,.03-.1.04-.2.04-.3,0-.69-.56-1.26-1.26-1.26s-1.26.56-1.26,1.26c0,.12.02.23.04.33h0c.01.06,0,.13-.04.18-.07.09-.19.12-.29.06h0c-.09-.05-.18-.1-.28-.13-.66-.21-1.37.15-1.58.81-.21.66.15,1.37.81,1.58"/>
  <path class="st2" d="M609.77,53.71c0-.55.45-.99.99-.99s.99.44.99.99-.44.99-.99.99-.99-.44-.99-.99"/>
  <path class="st2" d="M661.31,51.29l-.44.76c-.17.3-.5.49-.85.49h-.02c.2.39.33.89.36,1.55,0,.12,0,.24,0,.37,0,.32,0,.8.11,1.01.05.09.14.19.23.28.21.23.55.62.39,1.14h0c-.17.52-.68.63-.98.7-.13.03-.26.05-.35.1-.22.1-.5.49-.68.75-.08.11-.15.21-.22.3-.44.56-.91.94-1.41,1.13.38.2.59.64.49,1.07l-.18.85c-.1.45-.5.78-.96.78-.07,0-.14,0-.21-.02l-.86-.18c-.36-.08-.64-.35-.73-.68-.33.34-.78.61-1.36.82-.11.04-.23.08-.35.12-.3.09-.76.24-.92.42-.07.08-.14.19-.2.3-.15.27-.41.72-.96.72h0s0,0,0,0h0s0,0,0,0c-.55,0-.81-.45-.96-.72-.06-.11-.13-.23-.2-.3-.16-.18-.62-.32-.92-.42-.12-.04-.24-.08-.35-.12-.67-.24-1.17-.58-1.51-.99-.03.16-.1.31-.21.44-.17.2-.4.33-.66.36l-.87.09s-.07,0-.1,0c-.51,0-.93-.38-.98-.88l-.09-.87c-.03-.26.05-.52.22-.72.06-.07.13-.14.2-.19-.42-.21-.82-.56-1.2-1.04-.07-.09-.14-.19-.22-.3-.18-.26-.46-.65-.68-.75-.09-.04-.22-.07-.35-.1-.3-.06-.81-.17-.98-.69h.02s0,0,0,0h-.02c-.17-.52.18-.9.39-1.13.09-.1.18-.2.23-.28.12-.21.11-.69.11-1.01,0-.13,0-.26,0-.37.03-.77.21-1.33.47-1.74-.04,0-.08,0-.12,0-.39,0-.74-.23-.9-.59l-.35-.8c-.11-.24-.11-.51-.02-.75s.28-.44.52-.55l.8-.35c.13-.05.26-.08.4-.08.22,0,.43.07.6.2.07-.47.27-.96.61-1.46.07-.1.14-.2.22-.3.19-.25.48-.64.5-.88,0-.1,0-.23-.02-.36-.03-.31-.09-.82.36-1.14l.06.09h0s-.06-.09-.06-.09c.15-.11.34-.17.53-.17.25,0,.46.09.67.18.12.05.24.11.34.13.03,0,.06,0,.1,0,.25,0,.61-.12.89-.21.12-.04.24-.08.36-.11.4-.11.78-.17,1.11-.17.2,0,.44.02.69.09-.07-.15-.11-.31-.1-.48.02-.26.13-.5.33-.68l.65-.58c.18-.16.41-.25.66-.25.28,0,.55.12.73.33l.58.65c.25.28.31.66.19.98.17-.03.33-.04.47-.04.34,0,.71.06,1.12.17.11.03.23.07.35.11.28.1.63.21.89.21.04,0,.07,0,.1,0,.1-.02.22-.08.34-.13.2-.09.42-.18.67-.18.2,0,.38.06.53.17h0s0,0,0,0c.44.33.39.84.36,1.15-.02.13-.03.26-.02.36.03.24.31.62.5.88.08.11.15.21.22.3.4.59.61,1.16.64,1.69.18-.17.42-.27.68-.27.17,0,.34.05.49.13l.75.44c.23.13.39.35.46.6.07.26.03.52-.1.75"/>
  <path class="st2" d="M651.27,49.36c-.98,0-1.79.69-1.98,1.61-.09-.01-.18-.02-.27-.02-.88,0-1.65.56-1.92,1.4-.3.93.11,1.92.92,2.38-.18.37-.24.78-.18,1.19.08.53.37,1,.81,1.32.35.25.76.39,1.19.39.51,0,.99-.19,1.36-.53.37.35.87.56,1.4.56.43,0,.84-.13,1.19-.39.79-.57,1.04-1.61.65-2.47.36-.19.65-.49.84-.86.24-.48.29-1.03.12-1.54-.27-.84-1.04-1.4-1.92-1.4-.07,0-.15,0-.22.01-.07-.4-.27-.77-.56-1.07-.38-.38-.89-.59-1.43-.59"/>
  <path class="st5" d="M651.01,49.38c.04-.71-.07-1.39-.13-1.8-.26-1.76-1.23-2.2-2.67-1.79-.43.12-1.15.45-1.71.33-.42-.09-.78-.38-.93-.27h0c-.15.11.01.54-.03.97-.06.57-.59,1.15-.84,1.53-.83,1.25-.72,2.3.87,3.09.36.18.96.48,1.63.66.33-.7,1.03-1.15,1.82-1.15.09,0,.18,0,.27.02.17-.83.86-1.49,1.72-1.6M652.08,44.79c.09-.08.1-.22.02-.31l-.59-.65c-.08-.09-.22-.1-.31-.02l-.65.58c-.09.08-.1.22-.02.31l.57.93c.08.09.22.1.32.02l.67-.86h0ZM656.88,51.47c1.59-.79,1.71-1.85.87-3.09-.25-.37-.79-.95-.84-1.53-.04-.43.12-.86-.03-.97-.15-.11-.51.18-.93.27-.56.12-1.28-.21-1.71-.33-1.45-.41-2.41.03-2.67,1.79-.06.4-.16,1.06-.13,1.77.48.04.92.24,1.26.58.3.3.49.66.56,1.07.07,0,.15-.01.22-.01.77,0,1.46.44,1.8,1.11.66-.18,1.24-.48,1.6-.65M660.65,50.9c.06-.11.02-.24-.08-.3l-.76-.44c-.11-.06-.24-.02-.3.08l-.71.83c-.06.11-.02.24.08.3l1.02.37c.11.06.24.02.3-.08l.44-.76h0ZM643.54,51.28c.11-.05.16-.18.12-.29l-.61-.9c-.05-.11-.18-.16-.29-.11l-.8.35c-.11.05-.16.18-.11.29l.35.8c.05.11.18.16.29.11l1.06-.25h0ZM655.72,61.33c-.03.12.05.24.17.26l.85.18c.12.03.24-.05.27-.17l.18-.86c.03-.12-.05-.24-.17-.27l-1-.41c-.12-.03-.24.05-.27.17l-.04,1.09h0ZM642.81,54.08c-.02.45.07,1.23-.21,1.73-.22.37-.61.62-.55.8h0c.06.18.52.15.91.33.53.23.91.92,1.19,1.28.93,1.18,1.97,1.39,3.21.13.27-.28.71-.72,1.08-1.27-.32-.3-.53-.7-.6-1.15-.06-.41,0-.82.18-1.19-.77-.44-1.18-1.35-.97-2.22-.66-.25-1.32-.36-1.72-.42-1.75-.3-2.47.49-2.52,1.99M654.44,54.81c.36.78.17,1.72-.47,2.32.37.54.8.97,1.07,1.25,1.25,1.27,2.28,1.05,3.21-.12.28-.35.66-1.04,1.19-1.27.39-.17.86-.15.92-.33h0c.06-.18-.33-.43-.55-.81-.29-.5-.2-1.28-.21-1.73-.06-1.5-.77-2.28-2.53-1.99-.38.07-1.01.17-1.64.4.13.48.07.99-.15,1.43-.19.37-.48.67-.84.86M645.3,60.32c-.12.01-.21.12-.2.24l.09.87c.01.12.12.21.24.2l.87-.09c.12-.01.21-.12.2-.24l.08-1.08c-.01-.12-.12-.21-.24-.2l-1.04.3h0ZM647.91,58.76c.18-.34.46-.9.87-1.43.32.2.68.3,1.06.3.51,0,.99-.19,1.36-.53.37.35.87.56,1.4.56.37,0,.72-.1,1.04-.29.39.51.66,1.05.84,1.38.82,1.58.3,2.5-1.11,3.02-.42.15-1.2.31-1.58.74-.29.32-.41.77-.6.77s-.31-.45-.6-.77c-.38-.43-1.16-.58-1.58-.74-1.41-.52-1.93-1.44-1.11-3.02"/>
  <path class="st5" d="M653.87,54.23c-.11.04-.22.06-.33.06h0c-.06,0-.12.04-.16.09-.07.09-.05.22.03.3h0c.08.07.15.14.21.23.41.56.28,1.35-.28,1.76-.56.41-1.35.28-1.76-.28-.07-.09-.12-.19-.16-.3h0c-.02-.06-.07-.1-.14-.13-.11-.04-.23.02-.27.12h0c-.04.09-.09.18-.15.27-.41.56-1.19.69-1.76.28-.56-.41-.69-1.2-.28-1.76.07-.09.15-.17.23-.24h0s.08-.1.08-.17c0-.12-.09-.21-.2-.22,0,0,0,0,0,0-.1,0-.2-.02-.3-.06-.66-.21-1.02-.93-.81-1.59.21-.66.92-1.02,1.58-.81.11.04.21.08.3.14,0,0,0,0,0,0,.05.03.12.04.18.02.11-.04.17-.15.15-.26,0,0,0,0,0,0-.03-.1-.04-.2-.04-.3,0-.69.56-1.26,1.26-1.26s1.26.56,1.26,1.26c0,.12-.02.23-.04.33h0c-.01.06,0,.13.04.18.07.09.19.12.29.06h0c.09-.05.18-.1.28-.13.66-.21,1.37.15,1.58.81.21.66-.15,1.37-.81,1.58"/>
  <path class="st2" d="M652.31,53.71c0-.55-.45-.99-.99-.99s-.99.44-.99.99.44.99.99.99.99-.44.99-.99"/>
  <path class="st1" d="M450.08,31.91c0-3.97,1.17-7.62,4.02-9.94,2.16-1.76,5.18-2.73,8.17-2.73s5.41.9,7.42,2.27c0,0,2.65,1.66,2.65,4.53,0,1.42-1.13,2.58-2.52,2.58s-2.4-1.1-2.33-2.58c.03-.7.13-1.89-.3-2.77-1.16-2.36-4.46-2.24-4.46-2.24-4.83,0-6.94,4.82-6.94,10.77,0,7.91,4.35,10.77,8.06,10.77,0,0,4.18.07,7.8-4.65l1.49.96c-2.25,3.42-6.11,5.69-10.49,5.69-6.94,0-12.57-5.66-12.57-12.65h0ZM460.06,56.92h-9.65v1.26l3.59.99-5.74,15.98-5.92-16.02,3.36-.9v-1.39h-11.13v1.35l2.92.81,8.17,20.19h2.65l8.53-20.11,3.23-.85v-1.3h0ZM389.66,50.32h0s0-.03,0-.04l4.08-1.08v-1.57h-11.13v1.44l4.43,1.16v20.42s.32,6.85-8.71,6.85-9.03-5.95-9.03-6.85v-20.38l4.51-1.25v-1.39h-13.51v1.44l4.4,1.17v20.08s-.74,9.51,12.85,9.51,12.1-8.97,12.1-8.97v-20.53h0ZM568.6,58.22l3.95,1.08-5.88,15.62-6.37-15.8,3.23-.9v-1.35h-10.86v1.44l3.01.81,8.75,21.59c-.58,1.06-1.13,2.12-1.68,3.19-.66,1.28-2.07,3.33-3.67,3.48-1.48.13-1.87-1.66-3.02-2.29-2.11-1.15-4.07,1.66-2.65,3.43.7.87,1.91,1.4,2.99,1.47,1.18.07,2.44-.14,3.51-.65.59-.28,1.2-.65,1.7-1.09,1.02-.9,1.76-2.02,2.39-3.21,1.04-1.97,2.03-3.92,2.9-5.97.74-1.76,1.48-3.51,2.22-5.27.9-2.13,1.79-4.27,2.69-6.4.78-1.84,1.55-3.69,2.33-5.54.38-.89.75-1.78,1.12-2.67,0-.02.02-.04.03-.07l3.19-.85v-1.44h-9.87v1.39h0ZM390.02,33.33l-1.2-.45h0s-.21-.08-.21-.08c-3.33,5.81-9.98,9.31-14.34,9.31,0,0-4.57.23-4.57-3.85h0V12.38l4.38-1.22.05-1.12h-13.84v1.32l4.14,1.07v28.8l-4.19,1.12v1.66h25.78l4-10.67h0ZM422.89,41.16l-4.14,1.34v1.51h13.16v-1.51l-4.19-1.34v-15.3c1.15-.91,2.39-1.74,3.69-2.42,1.63-.86,3.73-1.86,5.62-1.57.96.15,2.04.81,2.62,1.59.87,1.18,1.14,2.76,1.15,4.19l-.02,13.43c0-.1,0,.12,0,.12l-4.14,1.29v1.53h13.26v-1.51s-4.14-1.34-4.14-1.34v-15.36c0-1.72-.59-3.28-1.92-4.41-1.39-1.18-3.16-1.77-4.95-1.97-3.2-.37-6.33.76-8.97,2.48-.76.5-1.5,1.03-2.24,1.55v-3.62h-1.75l-7.36,1.95v1.46h4.34v17.91h0ZM440.77,41.07v.08-.08h0ZM412.96,76.48v.09-.09h0ZM417.53,76.54v-14.08c0-1.58-.54-3.02-1.76-4.05-1.28-1.08-2.9-1.63-4.54-1.81-2.94-.33-5.81.69-8.24,2.28-.7.45-1.38.94-2.06,1.43v-3.32h-1.61l-6.76,1.79v1.34h3.98v16.45l-3.8,1.23v1.39h12.08v-1.39l-3.85-1.23v-14.06c1.06-.83,2.19-1.6,3.39-2.22,1.49-.79,3.42-1.71,5.16-1.44.88.13,1.88.74,2.41,1.46.8,1.08,1.05,2.53,1.05,3.85l-.02,12.33c0-.07,0,.12,0,.12l-3.81,1.18v1.4h12.18v-1.42s-3.8-1.23-3.8-1.23h0ZM513.73,28.82c-3.7-.7-6.69-1.7-6.69-4.17,0-2.99,3.58-3.25,5.08-3.2,6.84.25,8.73,5.98,8.73,5.98h1.54l-1.55-7.56h-1.38l-.48,1.63c-1.19-.8-3.7-2.18-6.72-2.18-6.05,0-9.51,3.51-9.51,7.37s4.95,5.46,8.68,6.54c3.62,1.05,8.47,1.25,8.47,4.83,0,4.38-5.95,4.28-5.95,4.28-8.07,0-10.18-7.2-10.18-7.2h-1.69l1.59,8.85h1.61l.58-2s4.03,2.37,8.27,2.37c6.04,0,10.1-3.94,10.1-8.14,0-5.65-6.63-6.67-10.51-7.41h0ZM547.41,77.71c-1.93,0-3.21-1.49-3.47-3.06-.11-.66-.06-1.88-.06-2.96v-13.38h6.6v-1.45h-6.6v-8.51h-2.1s.1,3.78-1.78,6.48c-1.43,2.05-4.29,2.16-4.29,2.16v1.42h3.65v13.64c0,1.08,0,2.11,0,2.78,0,3,2.92,4.73,6.2,4.73,4.24,0,5.94-1.83,7.08-3.02l-1.15-.98c-1.29,1.1-2.44,2.14-4.07,2.14h0ZM528.21,36.21c0,1.17,0,2.29,0,3.01,0,3.24,3.16,5.12,6.71,5.12,4.17,0,6.07-1.64,7.3-2.9-.34-.44-.66-.89-.96-1.36-1.37,1.17-2.6,2.25-4.34,2.25-2.08,0-3.47-1.62-3.76-3.31-.12-.71-.07-2.03-.07-3.2v-14.38h7.14v-1.64h-7.14v-9.23h-2.27s.11,4.09-1.92,7.01c-1.55,2.22-4.64,2.34-4.64,2.34v1.54h3.95v14.76h0ZM541.15,31.91c0-4.16,1.68-8.04,4.78-10.31,2.03-1.49,4.44-2.18,7.14-2.18,5.97,0,10.44,4.05,10.79,10.2h-17.54s-1.83,12.55,8.07,12.55c0,0,5.16.21,7.68-4.52l1.54.73c-1.24,3.53-5.43,6.01-9.9,6.01-6.83,0-12.55-5.59-12.55-12.48h0ZM546.49,27.52h12.14c-.2-3.77-2.58-6.26-5.97-6.26-2.72,0-6.17,1.6-6.17,6.26h0ZM464.51,65.95s-1.69,11.59,7.45,11.59c0,0,4.77.2,7.09-4.18l1.42.68c-1.14,3.26-5.01,5.55-9.14,5.55-6.3,0-11.59-5.16-11.59-11.53,0-3.84,1.55-7.42,4.41-9.52,1.88-1.37,4.1-2.01,6.59-2.01,5.51,0,9.64,3.74,9.96,9.42h-16.2ZM464.67,64.01h11.2c-.18-3.48-2.38-5.78-5.51-5.78-2.51,0-5.7,1.47-5.7,5.78h0ZM583.89,19.52h0s-.05-.01-.08-.02c-.03,0-.05-.01-.08-.02-5.04-1.12-8.98,3.05-9.82,4.03v-3.65h-2l-7.21,1.95v1.46h4.34v18.18l-4.19,1.12v1.44h13.54v-1.44l-4.48-1.17v-15.64c.29-.31,2.58-2.71,4.52-2.71,2.23,0,2.3,1.41,4.5,1.64.01,0,.03,0,.04,0,0,0,0,0,.01,0h0c.08,0,.16.01.24.01,1.45,0,2.64-1.18,2.64-2.64,0-1.23-.84-2.26-1.98-2.55h0ZM499.99,56.64h0s-.05-.01-.07-.02c-.02,0-.05-.01-.07-.02-4.64-1.02-8.26,2.8-9.03,3.7v-3.36h-1.84l-6.63,1.79v1.35h3.99v16.72l-3.85,1.03v1.34h12.46v-1.34l-4.12-1.08v-14.38c.27-.29,2.37-2.49,4.16-2.49,2.05,0,2.11,1.29,4.14,1.51.01,0,.02,0,.04,0h.01c.07,0,.15.01.22.01,1.34,0,2.42-1.09,2.42-2.43,0-1.13-.77-2.07-1.82-2.35h0ZM431.24,56.92l-8.21.85v1.84h3.86v16.92l-3.99,1.24v1.41s12.16,0,12.16,0v-1.41l-3.81-1.23v-19.62h0ZM429.35,49.07c-1.54,0-2.78,1.25-2.78,2.78s1.25,2.78,2.78,2.78,2.78-1.25,2.78-2.78-1.25-2.78-2.78-2.78h0ZM532.74,56.92l-8.21.85v1.84h3.86v16.92l-3.91,1.24v1.41h12.07v-1.41l-3.82-1.23v-19.62h0ZM527.9,51.85c0,1.54,1.25,2.78,2.78,2.78s2.78-1.25,2.78-2.78-1.25-2.78-2.78-2.78-2.78,1.25-2.78,2.78h0ZM491.78,29.92v-4.79c0-3.63-3.89-3.74-5.56-3.74-1.34,0-3.9.08-5.11,1.63-.66.84-.44,2.31-.41,3.01.07,1.47-.93,2.57-2.33,2.57s-2.52-1.15-2.52-2.57c0-2.87,2.65-4.53,2.65-4.53,2.01-1.36,5.46-2.06,8.34-2.06s5.51.6,7.74,2.27c1.14.86,2.03,2.31,2.03,5.33v14.11l4.79,1.33.27,1.51h-7.04l-2.86-3.09s-4.08,3.43-9.22,3.43-7.49-2.77-7.49-5.31c0,0-.84-5.26,6.76-7.55,1.43-.43,2.72-.68,3.83-.88,4.11-.74,6.14-.67,6.14-.67h0ZM491.71,31.67s-4.8.16-8.06,1.59c-2.47,1.08-3.82,2.95-3.69,5.21.07,1.35,1.52,3.64,5,3.42,3.45-.22,6.76-3.21,6.76-3.21v-7.01h0ZM513.38,65.11c-3.42-.65-6.18-1.57-6.18-3.85,0-2.76,3.31-3.01,4.7-2.96,6.32.23,8.07,5.53,8.07,5.53h1.42l-1.43-6.99h-1.27l-.44,1.51c-1.1-.74-3.41-2.01-6.21-2.01-5.59,0-8.79,3.24-8.79,6.81s4.57,5.04,8.02,6.04c3.34.97,7.83,1.15,7.83,4.47,0,4.05-5.5,3.96-5.5,3.96-7.46,0-9.4-6.65-9.4-6.65h-1.56l1.48,8.18h1.49l.54-1.85s3.72,2.19,7.64,2.19c5.59,0,9.33-3.64,9.33-7.53,0-5.22-6.13-6.16-9.71-6.85h0ZM407.85,29.92v-4.79c0-3.63-3.89-3.74-5.56-3.74-1.34,0-3.9.08-5.12,1.63-.66.84-.44,2.31-.41,3.01.07,1.47-.93,2.57-2.33,2.57s-2.52-1.15-2.52-2.57c0-2.87,2.65-4.53,2.65-4.53,2.01-1.36,5.46-2.06,8.34-2.06s5.51.6,7.74,2.27c1.14.86,2.02,2.31,2.02,5.33v14.11l4.5,1.25v1.59h-6.48l-2.86-3.09s-4.08,3.43-9.22,3.43-7.49-2.77-7.49-5.31c0,0-.84-5.26,6.76-7.55,1.43-.43,2.72-.68,3.83-.88,4.11-.74,6.14-.67,6.14-.67h0ZM407.77,31.67s-4.8.16-8.06,1.59c-2.47,1.08-3.82,2.95-3.69,5.21.07,1.35,1.52,3.64,5,3.42,3.44-.22,6.76-3.21,6.76-3.21v-7.01h0Z"/>
  <path class="st2" d="M661.27,73.54c-1.84.51-4.06.87-7.22.87-2.81,0-4.87-.29-6.59-.71-1.29-.32-2.38-.71-3.46-1.14-1.61-.64-3.18-1.36-5.2-1.92-2.01-.56-4.44-.95-7.75-.95-2.94,0-5.19.3-7.06.77-1.41.35-2.6.78-3.72,1.22-1.68.67-3.16,1.34-4.99,1.85-1.84.51-4.06.87-7.22.87-2.81,0-4.87-.29-6.59-.71-1.21-.3-2.25-.66-3.26-1.06.38.85.78,1.7,1.2,2.55.29.09.59.18.9.27,2.01.56,4.44.95,7.75.95,2.94,0,5.19-.3,7.06-.77,1.41-.35,2.6-.78,3.72-1.22,1.68-.67,3.16-1.34,4.99-1.85,1.84-.51,4.06-.87,7.22-.87,2.81,0,4.87.29,6.59.71,1.29.32,2.38.71,3.46,1.14,1.61.64,3.18,1.36,5.2,1.92,2.01.56,4.44.95,7.75.95,2.94,0,5.19-.3,7.06-.77.55-.14,1.07-.29,1.56-.45.42-.85.82-1.7,1.19-2.54-.82.32-1.67.63-2.6.89h0Z"/>
  <path class="st2" d="M654.05,70.4c-2.81,0-4.87-.29-6.59-.71-1.29-.32-2.38-.71-3.46-1.14-1.61-.64-3.18-1.36-5.2-1.92-2.01-.56-4.44-.95-7.75-.95-2.94,0-5.19.3-7.06.77-1.41.35-2.6.78-3.72,1.22-1.68.67-3.16,1.34-4.99,1.85-1.84.51-4.06.87-7.22.87-2.81,0-4.87-.29-6.59-.71-1.29-.32-2.38-.71-3.46-1.14-.57-.23-1.13-.46-1.71-.7.3.84.62,1.69.97,2.55.93.37,1.92.73,3.04,1.05,2.01.56,4.44.95,7.75.94,2.94,0,5.19-.3,7.06-.76,1.41-.35,2.6-.78,3.72-1.22,1.68-.67,3.16-1.34,4.99-1.85,1.84-.51,4.06-.87,7.22-.87,2.81,0,4.87.29,6.59.71,1.29.32,2.38.71,3.46,1.14,1.61.64,3.18,1.36,5.2,1.92,2.01.56,4.44.95,7.75.94,2.94,0,5.19-.3,7.06-.76,1.4-.35,2.59-.78,3.7-1.22.34-.85.67-1.7.97-2.55-1.48.6-2.86,1.2-4.52,1.66-1.84.51-4.06.87-7.22.87h0Z"/>
  <path class="st2" d="M595.66,65.92c1.43.58,2.87,1.21,4.66,1.71,2.01.56,4.44.95,7.75.95,2.94,0,5.19-.3,7.06-.77,1.41-.35,2.6-.78,3.72-1.22,1.68-.67,3.16-1.34,4.99-1.85,1.84-.51,4.06-.87,7.22-.87,2.81,0,4.87.29,6.59.71,1.29.32,2.38.71,3.46,1.14,1.61.64,3.18,1.36,5.2,1.92,2.01.56,4.44.95,7.75.95,2.94,0,5.19-.3,7.06-.77,1.41-.35,2.6-.78,3.72-1.22.55-.22,1.08-.44,1.61-.65.26-.82.5-1.63.72-2.43-.31.11-.61.23-.9.35-1.67.67-3.16,1.34-4.99,1.85-1.84.51-4.06.87-7.22.87-2.81,0-4.87-.29-6.59-.71-1.29-.32-2.38-.71-3.46-1.14-1.61-.64-3.18-1.36-5.2-1.92-2.01-.56-4.44-.95-7.75-.95-2.94,0-5.19.3-7.06.77-1.41.35-2.6.78-3.72,1.22-1.68.67-3.16,1.34-4.99,1.85-1.84.51-4.06.87-7.22.87-2.81,0-4.87-.29-6.59-.71-1.29-.32-2.38-.71-3.46-1.14-1.01-.4-2-.83-3.09-1.23.22.8.46,1.61.72,2.43h0Z"/>
  <polygon class="st2" points="592.6 40.23 592.6 41.23 669.48 41.23 669.48 40.23 592.6 40.23 592.6 40.23"/>
  <line class="st0" x1="337.45" x2="337.45" y2="90.06"/>
  <path class="st4" d="M0,38.42V9.36h7.93c3.2,0,6.01.51,8.45,1.52,2.44,1.02,4.35,2.59,5.73,4.73,1.38,2.13,2.07,4.89,2.07,8.26s-.69,6.13-2.07,8.28c-1.38,2.15-3.29,3.73-5.73,4.75-2.44,1.02-5.26,1.52-8.45,1.52H0ZM2.09,36.46h6.27c2.76,0,5.16-.46,7.19-1.37,2.03-.92,3.61-2.31,4.73-4.18,1.12-1.87,1.68-4.22,1.68-7.04,0-4.24-1.25-7.39-3.75-9.45-2.5-2.06-5.9-3.09-10.2-3.09H2.09v25.14Z"/>
  <g>
    <path class="st4" d="M44.58,38.42h-1.87c-.03-.41-.05-.86-.06-1.37-.02-.51-.02-1.17-.02-1.98-.7,1.02-1.48,1.81-2.35,2.37-.87.57-1.76.96-2.66,1.18-.9.22-1.73.33-2.48.33-1.1,0-2.2-.17-3.29-.5-1.09-.33-1.99-.94-2.7-1.81-.71-.87-1.07-2.09-1.07-3.66,0-1.31.29-2.48.87-3.53.58-1.05,1.51-1.88,2.79-2.51,1.28-.62,2.96-.94,5.05-.94,1.22,0,2.31.04,3.27.13.96.09,1.77.19,2.44.31v-1.13c0-2.21-.52-3.7-1.57-4.49s-2.56-1.18-4.53-1.18c-1.66,0-2.97.24-3.94.72-.97.48-1.72.94-2.24,1.37l-1.05-1.35c.55-.52,1.44-1.07,2.68-1.66,1.23-.58,2.74-.87,4.51-.87,2.58,0,4.58.55,5.99,1.66,1.41,1.1,2.11,2.93,2.11,5.49v10.87c0,.51.01.95.04,1.33l.09,1.22ZM42.53,31.02v-2.83c-.61-.15-1.37-.27-2.29-.37-.92-.1-2.08-.15-3.51-.15s-2.66.18-3.53.54c-.87.36-1.53.82-1.98,1.37-.45.55-.74,1.13-.87,1.74s-.2,1.16-.2,1.66c0,1.45.49,2.51,1.46,3.18.97.67,2.21,1,3.73,1,1.34,0,2.54-.3,3.62-.89,1.07-.6,1.94-1.37,2.59-2.31.65-.94.98-1.92.98-2.94Z"/>
    <path class="st4" d="M52.2,32.28v-12.07h-4.01v-1.83h4.01v-6.62h1.96v6.62h6.62v1.83h-6.62v11.59c0,1.57.16,2.74.48,3.51.32.77.75,1.27,1.29,1.5.54.23,1.15.35,1.85.35s1.35-.13,1.87-.39c.52-.26,1.05-.71,1.57-1.35l1.22,1.18c-.58.76-1.24,1.34-1.98,1.74-.74.41-1.71.61-2.9.61-1.05,0-1.98-.19-2.79-.57-.81-.38-1.45-1.05-1.9-2-.45-.96-.68-2.32-.68-4.1Z"/>
    <path class="st4" d="M81.48,38.42h-1.87c-.03-.41-.05-.86-.06-1.37-.02-.51-.02-1.17-.02-1.98-.7,1.02-1.48,1.81-2.35,2.37-.87.57-1.76.96-2.66,1.18-.9.22-1.73.33-2.48.33-1.1,0-2.2-.17-3.29-.5-1.09-.33-1.99-.94-2.7-1.81-.71-.87-1.07-2.09-1.07-3.66,0-1.31.29-2.48.87-3.53.58-1.05,1.51-1.88,2.79-2.51,1.28-.62,2.96-.94,5.05-.94,1.22,0,2.31.04,3.27.13.96.09,1.77.19,2.44.31v-1.13c0-2.21-.52-3.7-1.57-4.49s-2.56-1.18-4.53-1.18c-1.66,0-2.97.24-3.94.72-.97.48-1.72.94-2.24,1.37l-1.05-1.35c.55-.52,1.44-1.07,2.68-1.66,1.23-.58,2.74-.87,4.51-.87,2.58,0,4.58.55,5.99,1.66,1.41,1.1,2.11,2.93,2.11,5.49v10.87c0,.51.01.95.04,1.33l.09,1.22ZM79.43,31.02v-2.83c-.61-.15-1.37-.27-2.29-.37-.92-.1-2.08-.15-3.51-.15s-2.66.18-3.53.54c-.87.36-1.53.82-1.98,1.37-.45.55-.74,1.13-.87,1.74s-.2,1.16-.2,1.66c0,1.45.49,2.51,1.46,3.18.97.67,2.21,1,3.73,1,1.34,0,2.54-.3,3.62-.89,1.07-.6,1.94-1.37,2.59-2.31.65-.94.98-1.92.98-2.94Z"/>
    <path class="st4" d="M94.25,34.59l1.52-1.48c.99,1.16,2.18,2.13,3.57,2.9,1.39.77,3.06,1.15,5.01,1.15,2.24,0,4.08-.52,5.53-1.55,1.45-1.03,2.18-2.56,2.18-4.6,0-1.45-.36-2.61-1.07-3.49-.71-.87-1.63-1.55-2.77-2.05-1.13-.49-2.31-.9-3.53-1.22-1.1-.32-2.2-.66-3.29-1.02-1.09-.36-2.08-.83-2.96-1.39-.89-.57-1.6-1.32-2.13-2.27-.54-.94-.81-2.13-.81-3.55,0-1.34.36-2.56,1.07-3.68.71-1.12,1.74-2.01,3.09-2.68,1.35-.67,2.97-1,4.86-1,1.66,0,3.05.22,4.18.65,1.13.44,2.07.96,2.81,1.57.74.61,1.31,1.21,1.72,1.79l-1.48,1.26c-.35-.46-.83-.95-1.44-1.46-.61-.51-1.39-.95-2.33-1.33-.94-.38-2.13-.57-3.55-.57-1.6,0-2.9.27-3.9.81-1,.54-1.74,1.23-2.2,2.07-.46.84-.7,1.73-.7,2.66,0,1.39.41,2.48,1.22,3.25.81.77,1.85,1.37,3.12,1.81,1.26.44,2.55.83,3.86,1.18,1.02.26,2.03.6,3.03,1,1,.41,1.92.93,2.74,1.57.83.64,1.49,1.45,1.98,2.44.49.99.74,2.21.74,3.66,0,1.69-.44,3.13-1.33,4.34-.89,1.21-2.08,2.13-3.59,2.79-1.51.65-3.2.98-5.05.98-2.44,0-4.52-.47-6.25-1.42-1.73-.94-3.01-1.98-3.86-3.12Z"/>
  </g>
  <g>
    <path class="st4" d="M134.72,34.24l1.39,1.22c-.81,1.02-1.91,1.85-3.29,2.51-1.38.65-2.93.98-4.64.98-1.95,0-3.68-.46-5.19-1.39-1.51-.93-2.7-2.19-3.57-3.79-.87-1.6-1.31-3.38-1.31-5.36s.44-3.8,1.33-5.38c.89-1.58,2.09-2.84,3.62-3.77,1.52-.93,3.23-1.39,5.12-1.39,1.77,0,3.27.31,4.51.94,1.23.62,2.29,1.49,3.16,2.59l-1.48,1.13c-.67-.87-1.5-1.56-2.51-2.07-1-.51-2.23-.76-3.68-.76-1.54,0-2.91.39-4.12,1.18-1.21.78-2.15,1.84-2.83,3.16-.68,1.32-1.02,2.78-1.02,4.38s.35,3.01,1.05,4.34c.7,1.32,1.65,2.38,2.85,3.18,1.21.8,2.56,1.2,4.07,1.2s2.74-.26,3.86-.78c1.12-.52,2.01-1.22,2.68-2.09Z"/>
    <path class="st4" d="M140.39,14.2v-2.88h2.75v2.88h-2.75ZM140.78,38.42v-20.04h1.96v20.04h-1.96Z"/>
    <path class="st4" d="M164.83,34.24l1.39,1.18c-.87,1.07-2.06,1.93-3.55,2.57-1.5.64-3.03.96-4.6.96-1.98,0-3.74-.44-5.29-1.33-1.55-.89-2.77-2.13-3.64-3.73-.87-1.6-1.31-3.43-1.31-5.49,0-1.95.41-3.72,1.22-5.32.81-1.6,1.95-2.87,3.42-3.81,1.47-.94,3.14-1.42,5.03-1.42s3.47.42,4.92,1.26c1.45.84,2.59,2.08,3.42,3.73.83,1.64,1.24,3.67,1.24,6.08h-17.08c.06,1.51.43,2.88,1.11,4.12.68,1.23,1.62,2.22,2.81,2.96,1.19.74,2.57,1.11,4.14,1.11,1.25,0,2.52-.26,3.81-.78s2.27-1.22,2.94-2.09ZM150.06,27.23h14.9c-.26-2.44-1.05-4.31-2.37-5.6-1.32-1.29-3.01-1.94-5.08-1.94-1.42,0-2.68.34-3.77,1.02-1.09.68-1.95,1.59-2.59,2.72-.64,1.13-1,2.4-1.09,3.79Z"/>
    <path class="st4" d="M172.2,38.42v-18.3c0-.52-.03-1.1-.09-1.74h1.83c.06.64.09,1.21.11,1.72.01.51.02,1.33.02,2.46.32-.61.8-1.28,1.44-2,.64-.73,1.48-1.36,2.53-1.9,1.05-.54,2.32-.81,3.83-.81,2.85,0,4.84.79,5.97,2.37,1.13,1.58,1.7,3.73,1.7,6.43v11.76h-1.96v-11.11c0-2-.23-3.56-.7-4.66-.46-1.1-1.14-1.87-2.03-2.31-.89-.44-1.97-.65-3.25-.65-1.69,0-3.08.44-4.18,1.31-1.1.87-1.92,1.95-2.46,3.25-.54,1.29-.81,2.58-.81,3.86v10.33h-1.96Z"/>
    <path class="st4" d="M210.97,34.24l1.39,1.22c-.81,1.02-1.91,1.85-3.29,2.51-1.38.65-2.93.98-4.64.98-1.95,0-3.68-.46-5.19-1.39-1.51-.93-2.7-2.19-3.57-3.79-.87-1.6-1.31-3.38-1.31-5.36s.44-3.8,1.33-5.38c.89-1.58,2.09-2.84,3.62-3.77,1.52-.93,3.23-1.39,5.12-1.39,1.77,0,3.27.31,4.51.94,1.23.62,2.29,1.49,3.16,2.59l-1.48,1.13c-.67-.87-1.5-1.56-2.51-2.07-1-.51-2.23-.76-3.68-.76-1.54,0-2.91.39-4.12,1.18-1.21.78-2.15,1.84-2.83,3.16-.68,1.32-1.02,2.78-1.02,4.38s.35,3.01,1.05,4.34c.7,1.32,1.65,2.38,2.85,3.18,1.21.8,2.56,1.2,4.07,1.2s2.74-.26,3.86-.78c1.12-.52,2.01-1.22,2.68-2.09Z"/>
  </g>
  <g>
    <path class="st4" d="M231.62,34.24l1.39,1.18c-.87,1.07-2.06,1.93-3.55,2.57-1.5.64-3.03.96-4.6.96-1.98,0-3.74-.44-5.29-1.33-1.55-.89-2.77-2.13-3.64-3.73-.87-1.6-1.31-3.43-1.31-5.49,0-1.95.41-3.72,1.22-5.32.81-1.6,1.95-2.87,3.42-3.81,1.47-.94,3.14-1.42,5.03-1.42s3.47.42,4.92,1.26c1.45.84,2.59,2.08,3.42,3.73.83,1.64,1.24,3.67,1.24,6.08h-17.08c.06,1.51.43,2.88,1.11,4.12.68,1.23,1.62,2.22,2.81,2.96,1.19.74,2.57,1.11,4.14,1.11,1.25,0,2.52-.26,3.81-.78s2.27-1.22,2.94-2.09ZM216.85,27.23h14.9c-.26-2.44-1.05-4.31-2.37-5.6-1.32-1.29-3.01-1.94-5.08-1.94-1.42,0-2.68.34-3.77,1.02-1.09.68-1.95,1.59-2.59,2.72-.64,1.13-1,2.4-1.09,3.79Z"/>
    <path class="st4" d="M262.39,38.42h-1.87c-.03-.41-.05-.86-.06-1.37-.02-.51-.02-1.17-.02-1.98-.7,1.02-1.48,1.81-2.35,2.37-.87.57-1.76.96-2.66,1.18-.9.22-1.73.33-2.48.33-1.1,0-2.2-.17-3.29-.5-1.09-.33-1.99-.94-2.7-1.81-.71-.87-1.07-2.09-1.07-3.66,0-1.31.29-2.48.87-3.53.58-1.05,1.51-1.88,2.79-2.51,1.28-.62,2.96-.94,5.05-.94,1.22,0,2.31.04,3.27.13.96.09,1.77.19,2.44.31v-1.13c0-2.21-.52-3.7-1.57-4.49s-2.56-1.18-4.53-1.18c-1.66,0-2.97.24-3.94.72-.97.48-1.72.94-2.24,1.37l-1.05-1.35c.55-.52,1.44-1.07,2.68-1.66,1.23-.58,2.74-.87,4.51-.87,2.58,0,4.58.55,5.99,1.66,1.41,1.1,2.11,2.93,2.11,5.49v10.87c0,.51.01.95.04,1.33l.09,1.22ZM260.34,31.02v-2.83c-.61-.15-1.37-.27-2.29-.37-.92-.1-2.08-.15-3.51-.15s-2.66.18-3.53.54c-.87.36-1.53.82-1.98,1.37-.45.55-.74,1.13-.87,1.74s-.2,1.16-.2,1.66c0,1.45.49,2.51,1.46,3.18.97.67,2.21,1,3.73,1,1.34,0,2.54-.3,3.62-.89,1.07-.6,1.94-1.37,2.59-2.31.65-.94.98-1.92.98-2.94Z"/>
    <path class="st4" d="M268.31,38.42v-18.3c0-.52-.03-1.1-.09-1.74h1.83c.06.64.09,1.21.11,1.72.01.51.02,1.33.02,2.46.32-.61.8-1.28,1.44-2,.64-.73,1.48-1.36,2.53-1.9,1.05-.54,2.32-.81,3.83-.81,2.85,0,4.84.79,5.97,2.37,1.13,1.58,1.7,3.73,1.7,6.43v11.76h-1.96v-11.11c0-2-.23-3.56-.7-4.66-.46-1.1-1.14-1.87-2.03-2.31-.89-.44-1.97-.65-3.25-.65-1.69,0-3.08.44-4.18,1.31-1.1.87-1.92,1.95-2.46,3.25-.54,1.29-.81,2.58-.81,3.86v10.33h-1.96Z"/>
    <path class="st4" d="M308.92,38.42h-1.92c-.03-.41-.05-.95-.07-1.63-.01-.68-.02-1.3-.02-1.85-.2.38-.45.73-.74,1.07-.29.33-.62.65-1,.94-.61.49-1.38.95-2.31,1.37-.93.42-2.05.63-3.35.63-2.03,0-3.72-.46-5.05-1.39-1.34-.93-2.33-2.18-2.98-3.75-.65-1.57-.98-3.31-.98-5.23,0-2.18.44-4.07,1.33-5.66.89-1.6,2.11-2.84,3.66-3.73,1.55-.89,3.33-1.33,5.34-1.33.84,0,1.62.1,2.33.31.71.2,1.36.42,1.94.65.61.26,1.22.58,1.83.96v-10.41h1.92v24.88c0,.81,0,1.51.02,2.09.01.58.04,1.28.07,2.09ZM306.91,30.67v-8.76c-.2-.2-.44-.4-.7-.59-.26-.19-.54-.36-.83-.5-.49-.29-1.13-.55-1.92-.78-.78-.23-1.69-.35-2.7-.35-1.37,0-2.68.3-3.94.92-1.26.61-2.29,1.57-3.07,2.88s-1.18,3.02-1.18,5.14c0,1.48.23,2.87.7,4.16.46,1.29,1.23,2.34,2.29,3.14,1.06.8,2.45,1.2,4.16,1.2,1.22,0,2.28-.22,3.18-.68.9-.45,1.65-1.02,2.24-1.7.59-.68,1.04-1.39,1.33-2.11.29-.73.44-1.38.44-1.96Z"/>
  </g>
  <g>
    <path class="st4" d="M114.99,73.65l11.89-29.06h2.09l11.9,29.06h-2.4l-3.79-9.37h-13.68l-3.75,9.37h-2.27ZM121.79,62.32h12.11l-6.06-15.08-6.06,15.08Z"/>
    <path class="st4" d="M145.49,73.65v-29.06h2.09v29.06h-2.09Z"/>
    <path class="st4" d="M162.96,73.65v-29.06h2.09v29.06h-2.09Z"/>
    <path class="st4" d="M171.89,73.65v-18.3c0-.52-.03-1.1-.09-1.74h1.83c.06.64.09,1.21.11,1.72.01.51.02,1.33.02,2.46.32-.61.8-1.28,1.44-2,.64-.73,1.48-1.36,2.53-1.9,1.05-.54,2.32-.81,3.83-.81,2.85,0,4.84.79,5.97,2.37,1.13,1.58,1.7,3.73,1.7,6.43v11.76h-1.96v-11.11c0-2-.23-3.56-.7-4.66-.46-1.1-1.14-1.87-2.03-2.31-.89-.44-1.97-.65-3.25-.65-1.69,0-3.08.44-4.18,1.31-1.1.87-1.92,1.95-2.46,3.25-.54,1.29-.81,2.58-.81,3.86v10.33h-1.96Z"/>
    <path class="st4" d="M193.85,71.12l1.26-1.39c.84.84,1.81,1.49,2.9,1.94s2.38.68,3.86.68c1.07,0,2.07-.14,2.98-.41s1.65-.69,2.2-1.24c.55-.55.83-1.25.83-2.09,0-.99-.25-1.74-.76-2.24-.51-.51-1.27-.92-2.29-1.22-1.02-.3-2.27-.63-3.75-.98-1.22-.29-2.3-.63-3.25-1.02-.94-.39-1.69-.95-2.24-1.68-.55-.73-.83-1.7-.83-2.92s.35-2.24,1.05-3.05,1.6-1.42,2.72-1.81c1.12-.39,2.32-.59,3.59-.59,1.54,0,2.92.29,4.14.87,1.22.58,2.21,1.32,2.96,2.22l-1.35,1.22c-.7-.75-1.5-1.37-2.42-1.83s-2.01-.7-3.29-.7c-.84,0-1.68.09-2.51.28-.83.19-1.52.55-2.07,1.09-.55.54-.83,1.33-.83,2.38,0,.84.31,1.51.92,2,.61.5,1.39.89,2.35,1.18.96.29,1.95.55,2.96.79,1.1.23,2.19.54,3.27.94,1.07.39,1.97.96,2.68,1.7.71.74,1.07,1.78,1.07,3.12s-.39,2.44-1.18,3.31c-.78.87-1.79,1.51-3.01,1.92-1.22.41-2.48.61-3.79.61-1.86,0-3.46-.28-4.79-.83-1.34-.55-2.47-1.29-3.4-2.22Z"/>
    <path class="st4" d="M216.99,67.51v-12.07h-4.01v-1.83h4.01v-6.62h1.96v6.62h6.62v1.83h-6.62v11.59c0,1.57.16,2.74.48,3.51.32.77.75,1.27,1.29,1.5.54.23,1.15.35,1.85.35s1.35-.13,1.87-.39c.52-.26,1.05-.71,1.57-1.35l1.22,1.18c-.58.76-1.24,1.34-1.98,1.74s-1.71.61-2.9.61c-1.05,0-1.98-.19-2.79-.57-.81-.38-1.45-1.04-1.9-2-.45-.96-.68-2.32-.68-4.1Z"/>
    <path class="st4" d="M230.36,49.42v-2.88h2.75v2.88h-2.75ZM230.76,73.65v-20.04h1.96v20.04h-1.96Z"/>
    <path class="st4" d="M240.6,67.51v-12.07h-4.01v-1.83h4.01v-6.62h1.96v6.62h6.62v1.83h-6.62v11.59c0,1.57.16,2.74.48,3.51.32.77.75,1.27,1.29,1.5.54.23,1.15.35,1.85.35s1.35-.13,1.87-.39c.52-.26,1.05-.71,1.57-1.35l1.22,1.18c-.58.76-1.24,1.34-1.98,1.74s-1.71.61-2.9.61c-1.05,0-1.98-.19-2.79-.57-.81-.38-1.45-1.04-1.9-2-.45-.96-.68-2.32-.68-4.1Z"/>
    <path class="st4" d="M254.11,65.37v-11.76h1.96v11.11c0,1.98.22,3.52.65,4.64.44,1.12,1.09,1.9,1.96,2.33.87.44,1.95.65,3.22.65,1.68,0,3.06-.44,4.14-1.31,1.07-.87,1.87-1.96,2.4-3.27.52-1.31.78-2.58.78-3.83v-10.33h1.96v15.82c0,1.13,0,1.95.02,2.46.01.51.04,1.1.07,1.76h-1.83c-.03-.67-.06-1.25-.09-1.74-.03-.49-.04-1.31-.04-2.44-.29.58-.75,1.24-1.37,1.98-.62.74-1.45,1.38-2.48,1.92-1.03.54-2.3.81-3.81.81-1.89,0-3.38-.36-4.49-1.07-1.1-.71-1.89-1.73-2.35-3.05-.46-1.32-.7-2.88-.7-4.68Z"/>
    <path class="st4" d="M279.08,67.51v-12.07h-4.01v-1.83h4.01v-6.62h1.96v6.62h6.62v1.83h-6.62v11.59c0,1.57.16,2.74.48,3.51.32.77.75,1.27,1.29,1.5.54.23,1.15.35,1.85.35s1.35-.13,1.87-.39c.52-.26,1.05-.71,1.57-1.35l1.22,1.18c-.58.76-1.24,1.34-1.98,1.74s-1.71.61-2.9.61c-1.05,0-1.98-.19-2.79-.57-.81-.38-1.45-1.04-1.9-2-.45-.96-.68-2.32-.68-4.1Z"/>
  </g>
  <path class="st4" d="M307.66,69.47l1.39,1.18c-.87,1.08-2.06,1.93-3.55,2.57-1.5.64-3.03.96-4.6.96-1.98,0-3.74-.44-5.29-1.33-1.55-.89-2.77-2.13-3.64-3.73-.87-1.6-1.31-3.43-1.31-5.49,0-1.95.41-3.72,1.22-5.32.81-1.6,1.95-2.87,3.42-3.81,1.47-.94,3.14-1.42,5.03-1.42s3.47.42,4.92,1.26c1.45.84,2.59,2.08,3.42,3.72.83,1.64,1.24,3.67,1.24,6.08h-17.08c.06,1.51.43,2.88,1.11,4.12.68,1.23,1.62,2.22,2.81,2.96,1.19.74,2.57,1.11,4.14,1.11,1.25,0,2.52-.26,3.81-.79,1.29-.52,2.27-1.22,2.94-2.09ZM292.89,62.45h14.9c-.26-2.44-1.05-4.31-2.37-5.6-1.32-1.29-3.01-1.94-5.08-1.94-1.42,0-2.68.34-3.77,1.02-1.09.68-1.95,1.59-2.59,2.72-.64,1.13-1,2.4-1.09,3.79Z"/>
</svg>