<?xml version="1.0" encoding="utf-8"?>
<!-- Generator: Adobe Illustrator 24.3.0, SVG Export Plug-In . SVG Version: 6.00 Build 0)  -->
<svg version="1.1" id="RE-RGB" xmlns="http://www.w3.org/2000/svg" xmlns:xlink="http://www.w3.org/1999/xlink" x="0px" y="0px"
	 viewBox="0 0 516.3 173.7" style="enable-background:new 0 0 516.3 173.7;" xml:space="preserve">
<style type="text/css">
	.st0{fill:#2E2D62;}
	.st1{fill:#FFFFFF;}
	.st2{fill:url(#);}
	.st3{fill:#FF6900;}
	.st4{fill:#C13D33;}
</style>
<g>
	<g>
		<g>
			<path class="st0" d="M338.3,88.2l-6.9-11.8h-3.8v11.8h-5.8V56h11.4c5.3,0,10,3.5,10,9.9c0,4.4-2.5,7.8-5.8,9.4l7.8,12.9H338.3z
				 M327.7,70.7h5.1c2.6,0,4.4-2,4.4-4.7c0-2.7-1.8-4.2-4.4-4.2h-5.1V70.7z"/>
			<path class="st0" d="M368.6,78.5h-16.8c0.7,3.5,3.5,4.8,6,4.8c3.1,0,4.5-1.9,4.5-1.9h5.8c-1.7,4.6-5.9,7.1-10.4,7.1
				c-6.2,0-11.6-4.7-11.6-11.9c0-7.1,5.4-11.5,11.5-11.5C363.4,65,369.4,69.1,368.6,78.5z M352.2,73.8h10.4
				c-0.7-2.7-2.6-3.8-4.9-3.8C355.2,70,353.1,71.5,352.2,73.8z"/>
			<path class="st0" d="M381.2,69.9c-1.9,0-2.8,1-2.8,1.9c0,1.6,2.1,2,3.5,2.3c4.1,0.9,8.2,2.1,8.2,7c0,4.7-3.9,7.4-8.6,7.4
				c-5.3,0-9.4-3.2-9.7-8.1h5.7c0.1,1.4,1.1,3.2,3.9,3.2c2.3,0,2.9-1.2,2.9-2.2c0-1.7-1.6-2.2-3.2-2.6c-2.7-0.6-8.6-1.7-8.6-6.9
				c0-4.5,4.3-6.8,8.8-6.8c5.2,0,8.6,3.1,8.8,7h-5.7C384.3,71.2,383.5,69.9,381.2,69.9z"/>
			<path class="st0" d="M415.6,78.5h-16.8c0.7,3.5,3.5,4.8,6,4.8c3.1,0,4.5-1.9,4.5-1.9h5.8c-1.7,4.6-5.9,7.1-10.4,7.1
				c-6.2,0-11.6-4.7-11.6-11.9c0-7.1,5.4-11.5,11.5-11.5C410.3,65,416.3,69.1,415.6,78.5z M399.1,73.8h10.4
				c-0.7-2.7-2.6-3.8-4.9-3.8C402.1,70,400.1,71.5,399.1,73.8z"/>
			<path class="st0" d="M441.1,83.8v4.4h-1.4c-2.7,0-4.6-1-5.3-2.9c-1.4,1.9-3.7,3.2-7.3,3.2c-5.2,0-8.5-2.7-8.5-6.8
				c0-7.2,9.8-7.8,14.2-8.1c-0.1-2.7-1.6-3.6-3.9-3.6c-3.3,0-3.5,2-3.5,2h-5.8c0.4-4.1,3.8-6.9,9.4-6.9c5.5,0,9.3,2.7,9.3,9.4v6.1
				C438.4,83.2,439.4,83.8,441.1,83.8z M432.7,78.6v-0.5c-4.2,0.5-8.3,1-8.3,3.4C424.4,85,432.4,84.7,432.7,78.6z"/>
			<path class="st0" d="M459.2,65v5.9c-0.5-0.1-1.2-0.2-2-0.2c-3.2,0-6.6,1.7-6.6,5.9v11.6h-6.1v-23h4.7l0.8,2.5h0.7
				c1-1,3.3-2.8,7-2.8H459.2z"/>
			<path class="st0" d="M472.2,88.5c-6.4,0-11.6-4.9-11.6-11.7c0-6.9,5.4-11.8,11.9-11.8c5.2,0,9.7,3.3,11,8.6h-6.3
				c-1-1.9-2.7-3.1-4.9-3.1c-3.2,0-5.8,2.6-5.8,6.2s2.6,6.2,5.8,6.2c2.1,0,3.7-1.1,4.7-2.8h6.3C481.9,85.6,477.1,88.5,472.2,88.5z"
				/>
			<path class="st0" d="M509.2,75.8v12.5H503V77.2c0-2.3,0.4-6.8-3.8-6.8c-2,0-5.9,1.1-5.9,7.1v10.8h-6.2V55.6h5.8v12.1h0.8
				c1.1-1.1,3.2-2.6,6.6-2.6C506.3,65,509.2,69.4,509.2,75.8z"/>
			<path class="st0" d="M343.5,129.6v5.8h-21.7v-32.2H343v5.8h-15.2v7.3h13.8v5.8h-13.8v7.7H343.5z"/>
			<path class="st0" d="M370,122.9v12.5h-6.1v-11.1c0-0.8,0.6-6.6-3.9-6.8c-2.2-0.1-6,1.1-6,7.1v10.8h-6.1v-23h4.7l0.8,2.8h0.8
				c1-1.2,3.1-3,7-3C367.1,112.1,370,116.6,370,122.9z"/>
			<path class="st0" d="M394.5,137.2c-0.2,5.2-4.9,7.6-10.4,7.6c-7.1,0-11.2-4.1-10.2-9.1l2.6-2.1c-1.5-0.9-2.4-2.3-2.4-4
				c0-1.9,1.2-3.2,2.9-4.1c-1.6-1.4-2.3-3.4-2.3-5.5c0-4.4,3.4-7.9,9.2-7.9c2,0,3.8,0.4,5.2,1.1c2.5-1.1,3.9-3,3.9-3l2.9,3.8
				c0,0-1.6,1.1-3.7,1.7c0.9,1.2,1.3,2.6,1.3,4.1c0,4.4-4,7.9-9.8,7.9c-1.2,0-2.3-0.1-3.3-0.4c-0.4,0.2-0.7,0.6-0.7,1.2
				c0,1.7,2.5,1.4,4.1,1.4h3.2C392.1,129.9,394.7,133.3,394.5,137.2z M388.9,137c0-1.2-1-2.2-3.6-2.2c-1.3,0-3.1,0-4.4,0l-1.6,1.7
				c-0.3,1.1,0.9,3,4.9,3C387.2,139.5,388.9,138.5,388.9,137z M380.2,119.9c0,1.7,1.2,3,3.9,3c2.6,0,3.9-1.3,3.9-3
				c0-1.7-1.3-2.9-3.9-2.9S380.2,118.1,380.2,119.9z"/>
			<path class="st0" d="M405,102.7v32.7h-6v-32.7H405z"/>
			<path class="st0" d="M432.1,131v4.4h-1.4c-2.7,0-4.6-1-5.3-2.9c-1.4,1.9-3.7,3.2-7.3,3.2c-5.2,0-8.5-2.7-8.5-6.8
				c0-7.2,9.8-7.8,14.2-8.1c-0.1-2.7-1.6-3.6-3.9-3.6c-3.3,0-3.5,2-3.5,2h-5.8c0.4-4.1,3.8-6.9,9.4-6.9c5.5,0,9.3,2.7,9.3,9.4v6.1
				C429.4,130.3,430.4,131,432.1,131z M423.8,125.7v-0.5c-4.2,0.5-8.3,1-8.3,3.4C415.4,132.1,423.4,131.8,423.8,125.7z"/>
			<path class="st0" d="M457.6,122.9v12.5h-6.1v-11.1c0-0.8,0.6-6.6-3.9-6.8c-2.2-0.1-6,1.1-6,7.1v10.8h-6.1v-23h4.7l0.8,2.8h0.8
				c1-1.2,3.1-3,7-3C454.7,112.1,457.6,116.6,457.6,122.9z"/>
			<path class="st0" d="M484,102.7v32.7h-4.5l-0.6-2.2h-0.7c-1.4,1.6-3.4,2.4-5.8,2.4c-5.8,0-10.7-4.8-10.7-11.7
				c0-6.9,4.9-11.7,10.7-11.7c2.4,0,4.5,0.8,5.9,2.5v-11.9H484z M478.2,123.9c0-3.8-2.1-6.1-5.1-6.1c-2.8,0-5.6,2-5.6,6.1
				c0,4,2.8,6.1,5.6,6.1C476.2,129.9,478.2,127.7,478.2,123.9z"/>
		</g>
	</g>
	<g>
		<rect x="7.1" y="24.8" class="st0" width="141.7" height="141.7"/>
		<path class="st1" d="M133.2,40.4h-16.5L94.5,64.1V40.4H62.4v31.4c0,6.7-5,10.6-11.6,10.6s-11.6-3.9-11.6-10.6V40.4H22.7v31.6
			c0,14.2,11.4,22.3,24.4,23.6H22.7V151h16.5v-20.5h7.2L61.7,151h71.5v-11.2h-19.4v-32.9h19.4V92.3L109.5,68l23.7-24.2V40.4z
			 M78,78.8v25.6c-3.5-5.9-11.6-8.7-23.6-8.7C65.1,94.6,75,88.8,78,78.8z M39.2,106.9h15.1c6.2,0,8.7,2.4,8.7,6.2
			c0,3.8-2.5,6.3-8.7,6.3H39.2V106.9z M97.3,139.8H78v7.7l-13.6-17.9c10.4-1.9,15.7-7.3,15.7-16.6c0-2.3-0.3-4.4-1-6.2h18.2V139.8z
			 M116.7,95.7H94.5V72L116.7,95.7z"/>
	</g>
	<g>
		<polyline class="st3" points="213.1,24.8 213.1,7.1 148.8,7.1 148.8,166.6 213.1,166.6 213.1,135.1 267.2,135.1 290.6,166.4 
			290.6,51.4 213.1,51.4 213.1,24.8 		"/>
		<rect x="213.1" y="24.8" class="st4" width="77.5" height="26.6"/>
		<polygon class="st4" points="267.2,135.1 213.1,135.1 213.1,166.6 290.6,166.6 290.6,166.4 		"/>
	</g>
</g>
</svg>
